STARTFONT 2.1
FONT -gbdfed-creep-Regular-R-Normal--16-120-96-96-M-4-ISO10646-1
SIZE 12 96 96
FONTBOUNDINGBOX 7 12 -1 -3
STARTPROPERTIES 23
POINT_SIZE 120
PIXEL_SIZE 16
RESOLUTION_X 96
RESOLUTION_Y 96
FONT_ASCENT 9
FONT_DESCENT 2
AVERAGE_WIDTH 4
SPACING "M"
FOUNDRY "gbdfed"
FAMILY_NAME "creep"
CHARSET_REGISTRY "ISO10646"
CHARSET_ENCODING "1"
WEIGHT_NAME "Regular"
SLANT "R"
SETWIDTH_NAME "Normal"
COPYRIGHT "Copyright romeovs 2013"
_TTF_PSNAME "creep"
_OTF_FONTFILE "creep2.ttf"
_GBDFED_INFO "Edited with gbdfed 1.6."
CAP_HEIGHT 7
DEFAULT_CHAR 0
FACE_NAME "creep"
AVG_LOWERCASE_WIDTH 4
ENDPROPERTIES
CHARS 830
STARTCHAR char10254
ENCODING -1
SWIDTH 437 0
DWIDTH 7 0
BBX 3 5 0 0
BITMAP
20
00
80
00
80
ENDCHAR
STARTCHAR spacehackarabic
ENCODING 32
SWIDTH 437 0
DWIDTH 7 0
BBX 0 0 0 0
BITMAP
ENDCHAR
STARTCHAR exclam
ENCODING 33
SWIDTH 437 0
DWIDTH 7 0
BBX 1 7 2 0
BITMAP
80
80
80
80
80
00
80
ENDCHAR
STARTCHAR quotedbl
ENCODING 34
SWIDTH 437 0
DWIDTH 7 0
BBX 3 3 1 4
BITMAP
A0
A0
A0
ENDCHAR
STARTCHAR numbersign
ENCODING 35
SWIDTH 437 0
DWIDTH 7 0
BBX 5 5 0 0
BITMAP
50
F8
50
F8
50
ENDCHAR
STARTCHAR dollar
ENCODING 36
SWIDTH 437 0
DWIDTH 7 0
BBX 5 7 0 0
BITMAP
20
78
A0
70
28
F0
20
ENDCHAR
STARTCHAR percent
ENCODING 37
SWIDTH 437 0
DWIDTH 7 0
BBX 4 4 0 1
BITMAP
90
20
40
90
ENDCHAR
STARTCHAR ampersand
ENCODING 38
SWIDTH 437 0
DWIDTH 7 0
BBX 5 7 0 0
BITMAP
40
A0
A0
40
A8
90
78
ENDCHAR
STARTCHAR quotesingle
ENCODING 39
SWIDTH 437 0
DWIDTH 7 0
BBX 1 3 2 4
BITMAP
80
80
80
ENDCHAR
STARTCHAR parenleft
ENCODING 40
SWIDTH 437 0
DWIDTH 7 0
BBX 3 9 0 -2
BITMAP
20
40
80
80
80
80
80
40
20
ENDCHAR
STARTCHAR parenright
ENCODING 41
SWIDTH 437 0
DWIDTH 7 0
BBX 3 9 0 -2
BITMAP
80
40
20
20
20
20
20
40
80
ENDCHAR
STARTCHAR asterisk
ENCODING 42
SWIDTH 437 0
DWIDTH 7 0
BBX 3 3 0 1
BITMAP
A0
40
A0
ENDCHAR
STARTCHAR plus
ENCODING 43
SWIDTH 437 0
DWIDTH 7 0
BBX 5 5 0 0
BITMAP
20
20
F8
20
20
ENDCHAR
STARTCHAR comma
ENCODING 44
SWIDTH 437 0
DWIDTH 7 0
BBX 2 2 1 -1
BITMAP
40
80
ENDCHAR
STARTCHAR hyphen
ENCODING 45
SWIDTH 437 0
DWIDTH 7 0
BBX 4 1 0 2
BITMAP
F0
ENDCHAR
STARTCHAR period
ENCODING 46
SWIDTH 437 0
DWIDTH 7 0
BBX 1 1 2 0
BITMAP
80
ENDCHAR
STARTCHAR slash
ENCODING 47
SWIDTH 437 0
DWIDTH 7 0
BBX 4 8 0 -1
BITMAP
10
10
20
20
40
40
80
80
ENDCHAR
STARTCHAR zero
ENCODING 48
SWIDTH 437 0
DWIDTH 7 0
BBX 4 7 0 0
BITMAP
60
90
90
B0
D0
90
60
ENDCHAR
STARTCHAR one
ENCODING 49
SWIDTH 437 0
DWIDTH 7 0
BBX 2 7 1 0
BITMAP
40
C0
40
40
40
40
40
ENDCHAR
STARTCHAR two
ENCODING 50
SWIDTH 437 0
DWIDTH 7 0
BBX 4 7 0 0
BITMAP
60
90
10
20
40
80
F0
ENDCHAR
STARTCHAR three
ENCODING 51
SWIDTH 437 0
DWIDTH 7 0
BBX 4 7 0 0
BITMAP
F0
10
20
60
10
90
60
ENDCHAR
STARTCHAR four
ENCODING 52
SWIDTH 437 0
DWIDTH 7 0
BBX 4 7 0 0
BITMAP
60
60
A0
A0
F0
20
20
ENDCHAR
STARTCHAR five
ENCODING 53
SWIDTH 437 0
DWIDTH 7 0
BBX 4 7 0 0
BITMAP
F0
80
E0
90
10
90
60
ENDCHAR
STARTCHAR six
ENCODING 54
SWIDTH 437 0
DWIDTH 7 0
BBX 4 7 0 0
BITMAP
60
90
80
E0
90
90
60
ENDCHAR
STARTCHAR seven
ENCODING 55
SWIDTH 437 0
DWIDTH 7 0
BBX 4 7 0 0
BITMAP
F0
10
10
20
20
40
40
ENDCHAR
STARTCHAR eight
ENCODING 56
SWIDTH 437 0
DWIDTH 7 0
BBX 4 7 0 0
BITMAP
60
90
90
60
90
90
60
ENDCHAR
STARTCHAR nine
ENCODING 57
SWIDTH 437 0
DWIDTH 7 0
BBX 4 7 0 0
BITMAP
60
90
90
70
10
90
60
ENDCHAR
STARTCHAR colon
ENCODING 58
SWIDTH 437 0
DWIDTH 7 0
BBX 1 3 1 1
BITMAP
80
00
80
ENDCHAR
STARTCHAR semicolon
ENCODING 59
SWIDTH 437 0
DWIDTH 7 0
BBX 2 4 0 0
BITMAP
40
00
40
80
ENDCHAR
STARTCHAR less
ENCODING 60
SWIDTH 437 0
DWIDTH 7 0
BBX 3 5 0 0
BITMAP
20
40
80
40
20
ENDCHAR
STARTCHAR equal
ENCODING 61
SWIDTH 437 0
DWIDTH 7 0
BBX 4 3 0 1
BITMAP
F0
00
F0
ENDCHAR
STARTCHAR greater
ENCODING 62
SWIDTH 437 0
DWIDTH 7 0
BBX 3 5 0 0
BITMAP
80
40
20
40
80
ENDCHAR
STARTCHAR question
ENCODING 63
SWIDTH 437 0
DWIDTH 7 0
BBX 4 7 0 0
BITMAP
E0
10
30
40
40
00
40
ENDCHAR
STARTCHAR at
ENCODING 64
SWIDTH 437 0
DWIDTH 7 0
BBX 4 6 0 0
BITMAP
F0
90
B0
B0
80
F0
ENDCHAR
STARTCHAR A
ENCODING 65
SWIDTH 437 0
DWIDTH 7 0
BBX 4 7 0 0
BITMAP
60
90
90
F0
90
90
90
ENDCHAR
STARTCHAR B
ENCODING 66
SWIDTH 437 0
DWIDTH 7 0
BBX 4 7 0 0
BITMAP
C0
A0
A0
E0
90
90
F0
ENDCHAR
STARTCHAR C
ENCODING 67
SWIDTH 437 0
DWIDTH 7 0
BBX 4 7 0 0
BITMAP
60
90
80
80
80
90
60
ENDCHAR
STARTCHAR D
ENCODING 68
SWIDTH 437 0
DWIDTH 7 0
BBX 4 7 0 0
BITMAP
C0
A0
90
90
90
A0
C0
ENDCHAR
STARTCHAR E
ENCODING 69
SWIDTH 437 0
DWIDTH 7 0
BBX 4 7 0 0
BITMAP
F0
80
80
C0
80
80
F0
ENDCHAR
STARTCHAR F
ENCODING 70
SWIDTH 437 0
DWIDTH 7 0
BBX 4 7 0 0
BITMAP
F0
80
80
C0
80
80
80
ENDCHAR
STARTCHAR G
ENCODING 71
SWIDTH 437 0
DWIDTH 7 0
BBX 4 7 0 0
BITMAP
60
90
80
80
B0
90
60
ENDCHAR
STARTCHAR H
ENCODING 72
SWIDTH 437 0
DWIDTH 7 0
BBX 4 7 0 0
BITMAP
90
90
F0
90
90
90
90
ENDCHAR
STARTCHAR I
ENCODING 73
SWIDTH 437 0
DWIDTH 7 0
BBX 3 7 0 0
BITMAP
E0
40
40
40
40
40
E0
ENDCHAR
STARTCHAR J
ENCODING 74
SWIDTH 437 0
DWIDTH 7 0
BBX 4 7 0 0
BITMAP
70
10
10
10
10
90
70
ENDCHAR
STARTCHAR K
ENCODING 75
SWIDTH 437 0
DWIDTH 7 0
BBX 4 7 0 0
BITMAP
90
A0
C0
A0
A0
90
90
ENDCHAR
STARTCHAR L
ENCODING 76
SWIDTH 437 0
DWIDTH 7 0
BBX 4 7 0 0
BITMAP
80
80
80
80
80
80
F0
ENDCHAR
STARTCHAR M
ENCODING 77
SWIDTH 437 0
DWIDTH 7 0
BBX 4 7 0 0
BITMAP
90
F0
F0
90
90
90
90
ENDCHAR
STARTCHAR N
ENCODING 78
SWIDTH 437 0
DWIDTH 7 0
BBX 4 7 0 0
BITMAP
90
D0
D0
B0
B0
90
90
ENDCHAR
STARTCHAR O
ENCODING 79
SWIDTH 437 0
DWIDTH 7 0
BBX 4 7 0 0
BITMAP
60
90
90
90
90
90
60
ENDCHAR
STARTCHAR P
ENCODING 80
SWIDTH 437 0
DWIDTH 7 0
BBX 4 7 0 0
BITMAP
E0
90
90
E0
80
80
80
ENDCHAR
STARTCHAR Q
ENCODING 81
SWIDTH 437 0
DWIDTH 7 0
BBX 4 8 0 -1
BITMAP
60
90
90
90
90
B0
70
10
ENDCHAR
STARTCHAR R
ENCODING 82
SWIDTH 437 0
DWIDTH 7 0
BBX 4 7 0 0
BITMAP
E0
90
90
E0
C0
A0
90
ENDCHAR
STARTCHAR S
ENCODING 83
SWIDTH 437 0
DWIDTH 7 0
BBX 4 7 0 0
BITMAP
60
90
80
60
10
90
60
ENDCHAR
STARTCHAR T
ENCODING 84
SWIDTH 437 0
DWIDTH 7 0
BBX 3 7 0 0
BITMAP
E0
40
40
40
40
40
40
ENDCHAR
STARTCHAR U
ENCODING 85
SWIDTH 437 0
DWIDTH 7 0
BBX 4 7 0 0
BITMAP
90
90
90
90
90
90
70
ENDCHAR
STARTCHAR V
ENCODING 86
SWIDTH 437 0
DWIDTH 7 0
BBX 4 7 0 0
BITMAP
90
90
90
90
90
90
60
ENDCHAR
STARTCHAR W
ENCODING 87
SWIDTH 437 0
DWIDTH 7 0
BBX 4 7 0 0
BITMAP
90
90
90
90
F0
F0
90
ENDCHAR
STARTCHAR X
ENCODING 88
SWIDTH 437 0
DWIDTH 7 0
BBX 4 7 0 0
BITMAP
90
90
60
90
90
90
90
ENDCHAR
STARTCHAR Y
ENCODING 89
SWIDTH 437 0
DWIDTH 7 0
BBX 4 7 0 0
BITMAP
90
90
90
70
10
90
70
ENDCHAR
STARTCHAR Z
ENCODING 90
SWIDTH 437 0
DWIDTH 7 0
BBX 4 7 0 0
BITMAP
F0
10
10
20
40
80
F0
ENDCHAR
STARTCHAR bracketleft
ENCODING 91
SWIDTH 437 0
DWIDTH 7 0
BBX 2 9 1 -2
BITMAP
C0
80
80
80
80
80
80
80
C0
ENDCHAR
STARTCHAR backslash
ENCODING 92
SWIDTH 437 0
DWIDTH 7 0
BBX 4 8 0 -1
BITMAP
80
80
40
40
20
20
10
10
ENDCHAR
STARTCHAR bracketright
ENCODING 93
SWIDTH 437 0
DWIDTH 7 0
BBX 2 9 1 -2
BITMAP
C0
40
40
40
40
40
40
40
C0
ENDCHAR
STARTCHAR asciicircum
ENCODING 94
SWIDTH 437 0
DWIDTH 7 0
BBX 3 2 1 5
BITMAP
40
A0
ENDCHAR
STARTCHAR underscore
ENCODING 95
SWIDTH 437 0
DWIDTH 7 0
BBX 4 1 0 0
BITMAP
F0
ENDCHAR
STARTCHAR grave
ENCODING 96
SWIDTH 437 0
DWIDTH 7 0
BBX 2 2 1 5
BITMAP
80
40
ENDCHAR
STARTCHAR a
ENCODING 97
SWIDTH 437 0
DWIDTH 7 0
BBX 4 5 0 0
BITMAP
70
90
90
90
70
ENDCHAR
STARTCHAR b
ENCODING 98
SWIDTH 437 0
DWIDTH 7 0
BBX 4 7 0 0
BITMAP
80
80
E0
90
90
90
E0
ENDCHAR
STARTCHAR c
ENCODING 99
SWIDTH 437 0
DWIDTH 7 0
BBX 4 5 0 0
BITMAP
60
90
80
90
60
ENDCHAR
STARTCHAR d
ENCODING 100
SWIDTH 437 0
DWIDTH 7 0
BBX 4 7 0 0
BITMAP
10
10
70
90
90
90
70
ENDCHAR
STARTCHAR e
ENCODING 101
SWIDTH 437 0
DWIDTH 7 0
BBX 4 5 0 0
BITMAP
60
90
F0
80
70
ENDCHAR
STARTCHAR f
ENCODING 102
SWIDTH 437 0
DWIDTH 7 0
BBX 4 9 0 -2
BITMAP
20
50
40
E0
40
40
40
40
80
ENDCHAR
STARTCHAR g
ENCODING 103
SWIDTH 437 0
DWIDTH 7 0
BBX 4 7 0 -2
BITMAP
70
90
90
90
70
10
60
ENDCHAR
STARTCHAR h
ENCODING 104
SWIDTH 437 0
DWIDTH 7 0
BBX 4 7 0 0
BITMAP
80
80
E0
90
90
90
90
ENDCHAR
STARTCHAR i
ENCODING 105
SWIDTH 437 0
DWIDTH 7 0
BBX 3 7 0 0
BITMAP
40
00
C0
40
40
40
60
ENDCHAR
STARTCHAR j
ENCODING 106
SWIDTH 437 0
DWIDTH 7 0
BBX 2 9 1 -2
BITMAP
40
00
C0
40
40
40
40
40
80
ENDCHAR
STARTCHAR k
ENCODING 107
SWIDTH 437 0
DWIDTH 7 0
BBX 4 7 0 0
BITMAP
80
80
90
A0
C0
A0
90
ENDCHAR
STARTCHAR l
ENCODING 108
SWIDTH 437 0
DWIDTH 7 0
BBX 2 7 1 0
BITMAP
80
80
80
80
80
80
40
ENDCHAR
STARTCHAR m
ENCODING 109
SWIDTH 437 0
DWIDTH 7 0
BBX 4 5 0 0
BITMAP
90
F0
90
90
90
ENDCHAR
STARTCHAR n
ENCODING 110
SWIDTH 437 0
DWIDTH 7 0
BBX 4 5 0 0
BITMAP
E0
90
90
90
90
ENDCHAR
STARTCHAR o
ENCODING 111
SWIDTH 437 0
DWIDTH 7 0
BBX 4 5 0 0
BITMAP
60
90
90
90
60
ENDCHAR
STARTCHAR p
ENCODING 112
SWIDTH 437 0
DWIDTH 7 0
BBX 4 7 0 -2
BITMAP
E0
90
90
90
E0
80
80
ENDCHAR
STARTCHAR q
ENCODING 113
SWIDTH 437 0
DWIDTH 7 0
BBX 4 7 0 -2
BITMAP
70
90
90
90
70
10
10
ENDCHAR
STARTCHAR r
ENCODING 114
SWIDTH 437 0
DWIDTH 7 0
BBX 4 5 0 0
BITMAP
E0
90
80
80
80
ENDCHAR
STARTCHAR s
ENCODING 115
SWIDTH 437 0
DWIDTH 7 0
BBX 4 5 0 0
BITMAP
70
80
60
10
E0
ENDCHAR
STARTCHAR t
ENCODING 116
SWIDTH 437 0
DWIDTH 7 0
BBX 3 7 0 0
BITMAP
40
40
E0
40
40
40
20
ENDCHAR
STARTCHAR u
ENCODING 117
SWIDTH 437 0
DWIDTH 7 0
BBX 4 5 0 0
BITMAP
90
90
90
90
70
ENDCHAR
STARTCHAR v
ENCODING 118
SWIDTH 437 0
DWIDTH 7 0
BBX 4 5 0 0
BITMAP
90
90
90
90
60
ENDCHAR
STARTCHAR w
ENCODING 119
SWIDTH 437 0
DWIDTH 7 0
BBX 4 5 0 0
BITMAP
90
90
90
F0
90
ENDCHAR
STARTCHAR x
ENCODING 120
SWIDTH 437 0
DWIDTH 7 0
BBX 4 5 0 0
BITMAP
90
90
60
90
90
ENDCHAR
STARTCHAR y
ENCODING 121
SWIDTH 437 0
DWIDTH 7 0
BBX 4 7 0 -2
BITMAP
90
90
90
90
70
90
60
ENDCHAR
STARTCHAR z
ENCODING 122
SWIDTH 437 0
DWIDTH 7 0
BBX 4 5 0 0
BITMAP
F0
20
40
80
F0
ENDCHAR
STARTCHAR braceleft
ENCODING 123
SWIDTH 437 0
DWIDTH 7 0
BBX 4 9 0 -2
BITMAP
30
40
40
40
80
40
40
40
30
ENDCHAR
STARTCHAR verticalbar
ENCODING 124
SWIDTH 437 0
DWIDTH 7 0
BBX 1 7 2 0
BITMAP
80
80
80
80
80
80
80
ENDCHAR
STARTCHAR braceright
ENCODING 125
SWIDTH 437 0
DWIDTH 7 0
BBX 4 9 0 -2
BITMAP
C0
20
20
20
10
20
20
20
C0
ENDCHAR
STARTCHAR asciitilde
ENCODING 126
SWIDTH 437 0
DWIDTH 7 0
BBX 4 2 0 1
BITMAP
50
A0
ENDCHAR
STARTCHAR exclamdown
ENCODING 161
SWIDTH 437 0
DWIDTH 7 0
BBX 1 7 2 0
BITMAP
80
00
80
80
80
80
80
ENDCHAR
STARTCHAR cent
ENCODING 162
SWIDTH 437 0
DWIDTH 7 0
BBX 4 7 0 -1
BITMAP
40
60
D0
C0
D0
60
40
ENDCHAR
STARTCHAR sterling
ENCODING 163
SWIDTH 437 0
DWIDTH 7 0
BBX 4 7 0 0
BITMAP
60
90
80
C0
80
D0
B0
ENDCHAR
STARTCHAR currency
ENCODING 164
SWIDTH 437 0
DWIDTH 7 0
BBX 4 4 0 1
BITMAP
90
60
60
90
ENDCHAR
STARTCHAR yen
ENCODING 165
SWIDTH 437 0
DWIDTH 7 0
BBX 5 7 -1 0
BITMAP
50
50
F8
50
F8
20
20
ENDCHAR
STARTCHAR brokenbar
ENCODING 166
SWIDTH 437 0
DWIDTH 7 0
BBX 1 7 2 0
BITMAP
80
80
80
00
80
80
80
ENDCHAR
STARTCHAR section
ENCODING 167
SWIDTH 437 0
DWIDTH 7 0
BBX 4 7 0 0
BITMAP
60
90
E0
90
70
90
60
ENDCHAR
STARTCHAR dieresis
ENCODING 168
SWIDTH 437 0
DWIDTH 7 0
BBX 3 1 0 6
BITMAP
A0
ENDCHAR
STARTCHAR copyright
ENCODING 169
SWIDTH 437 0
DWIDTH 7 0
BBX 6 7 -1 0
BITMAP
30
48
B4
A4
B4
48
30
ENDCHAR
STARTCHAR ordfeminine
ENCODING 170
SWIDTH 437 0
DWIDTH 7 0
BBX 4 5 0 0
BITMAP
40
A0
60
A0
F0
ENDCHAR
STARTCHAR guillemotleft
ENCODING 171
SWIDTH 437 0
DWIDTH 7 0
BBX 4 4 0 1
BITMAP
50
A0
A0
50
ENDCHAR
STARTCHAR logicalnot
ENCODING 172
SWIDTH 437 0
DWIDTH 7 0
BBX 4 2 0 3
BITMAP
F0
10
ENDCHAR
STARTCHAR registered
ENCODING 174
SWIDTH 437 0
DWIDTH 7 0
BBX 6 7 -1 0
BITMAP
30
48
B4
A4
A4
48
30
ENDCHAR
STARTCHAR macron
ENCODING 175
SWIDTH 437 0
DWIDTH 7 0
BBX 4 1 0 6
BITMAP
F0
ENDCHAR
STARTCHAR degree
ENCODING 176
SWIDTH 437 0
DWIDTH 7 0
BBX 3 3 1 3
BITMAP
40
A0
40
ENDCHAR
STARTCHAR plusminus
ENCODING 177
SWIDTH 437 0
DWIDTH 7 0
BBX 5 5 0 0
BITMAP
20
20
F8
20
F8
ENDCHAR
STARTCHAR twosuperior
ENCODING 178
SWIDTH 437 0
DWIDTH 7 0
BBX 3 4 1 3
BITMAP
60
A0
40
E0
ENDCHAR
STARTCHAR threesuperior
ENCODING 179
SWIDTH 437 0
DWIDTH 7 0
BBX 3 4 1 3
BITMAP
E0
40
20
C0
ENDCHAR
STARTCHAR acute
ENCODING 180
SWIDTH 437 0
DWIDTH 7 0
BBX 2 2 1 4
BITMAP
40
80
ENDCHAR
STARTCHAR mu1
ENCODING 181
SWIDTH 437 0
DWIDTH 7 0
BBX 5 7 -1 -2
BITMAP
48
48
48
48
70
40
80
ENDCHAR
STARTCHAR paragraph
ENCODING 182
SWIDTH 437 0
DWIDTH 7 0
BBX 4 8 0 -2
BITMAP
70
D0
D0
D0
50
50
50
60
ENDCHAR
STARTCHAR middot
ENCODING 183
SWIDTH 437 0
DWIDTH 7 0
BBX 1 1 2 2
BITMAP
80
ENDCHAR
STARTCHAR cedilla
ENCODING 184
SWIDTH 437 0
DWIDTH 7 0
BBX 3 3 0 -3
BITMAP
40
20
C0
ENDCHAR
STARTCHAR onesuperior
ENCODING 185
SWIDTH 437 0
DWIDTH 7 0
BBX 3 4 1 3
BITMAP
C0
40
40
E0
ENDCHAR
STARTCHAR ordmasculine
ENCODING 186
SWIDTH 437 0
DWIDTH 7 0
BBX 3 5 0 1
BITMAP
40
A0
40
00
E0
ENDCHAR
STARTCHAR guillemotright
ENCODING 187
SWIDTH 437 0
DWIDTH 7 0
BBX 4 4 0 1
BITMAP
A0
50
50
A0
ENDCHAR
STARTCHAR onequarter
ENCODING 188
SWIDTH 437 0
DWIDTH 7 0
BBX 4 8 0 -1
BITMAP
20
20
00
F0
00
50
70
10
ENDCHAR
STARTCHAR onehalf
ENCODING 189
SWIDTH 437 0
DWIDTH 7 0
BBX 4 9 0 -2
BITMAP
20
20
00
F0
00
20
50
20
70
ENDCHAR
STARTCHAR questiondown
ENCODING 191
SWIDTH 437 0
DWIDTH 7 0
BBX 4 7 0 0
BITMAP
20
00
20
20
C0
80
70
ENDCHAR
STARTCHAR Agrave
ENCODING 192
SWIDTH 437 0
DWIDTH 7 0
BBX 4 9 0 0
BITMAP
40
20
60
90
90
F0
90
90
90
ENDCHAR
STARTCHAR Aacute
ENCODING 193
SWIDTH 437 0
DWIDTH 7 0
BBX 4 9 0 0
BITMAP
20
40
60
90
90
F0
90
90
90
ENDCHAR
STARTCHAR Acircumflex
ENCODING 194
SWIDTH 437 0
DWIDTH 7 0
BBX 4 9 0 0
BITMAP
60
90
60
90
90
F0
90
90
90
ENDCHAR
STARTCHAR Atilde
ENCODING 195
SWIDTH 437 0
DWIDTH 7 0
BBX 4 9 0 0
BITMAP
50
A0
60
90
90
F0
90
90
90
ENDCHAR
STARTCHAR Adieresis
ENCODING 196
SWIDTH 437 0
DWIDTH 7 0
BBX 4 9 0 0
BITMAP
50
00
60
90
90
F0
90
90
90
ENDCHAR
STARTCHAR Aring
ENCODING 197
SWIDTH 437 0
DWIDTH 7 0
BBX 4 9 0 0
BITMAP
40
00
60
90
90
F0
90
90
90
ENDCHAR
STARTCHAR AE
ENCODING 198
SWIDTH 437 0
DWIDTH 7 0
BBX 4 7 0 0
BITMAP
70
A0
A0
F0
A0
A0
B0
ENDCHAR
STARTCHAR Ccedilla
ENCODING 199
SWIDTH 437 0
DWIDTH 7 0
BBX 4 9 0 -2
BITMAP
60
90
80
80
80
90
60
20
60
ENDCHAR
STARTCHAR Egrave
ENCODING 200
SWIDTH 437 0
DWIDTH 7 0
BBX 4 9 0 0
BITMAP
40
20
F0
80
80
C0
80
80
F0
ENDCHAR
STARTCHAR Eacute
ENCODING 201
SWIDTH 437 0
DWIDTH 7 0
BBX 4 9 0 0
BITMAP
20
40
F0
80
80
C0
80
80
F0
ENDCHAR
STARTCHAR Ecircumflex
ENCODING 202
SWIDTH 437 0
DWIDTH 7 0
BBX 4 9 0 0
BITMAP
60
90
F0
80
80
C0
80
80
F0
ENDCHAR
STARTCHAR Edieresis
ENCODING 203
SWIDTH 437 0
DWIDTH 7 0
BBX 4 9 0 0
BITMAP
50
00
F0
80
80
C0
80
80
F0
ENDCHAR
STARTCHAR Igrave
ENCODING 204
SWIDTH 437 0
DWIDTH 7 0
BBX 3 9 0 0
BITMAP
80
40
E0
40
40
40
40
40
E0
ENDCHAR
STARTCHAR Iacute
ENCODING 205
SWIDTH 437 0
DWIDTH 7 0
BBX 3 9 0 0
BITMAP
20
40
E0
40
40
40
40
40
E0
ENDCHAR
STARTCHAR Icircumflex
ENCODING 206
SWIDTH 437 0
DWIDTH 7 0
BBX 3 9 0 0
BITMAP
40
A0
E0
40
40
40
40
40
E0
ENDCHAR
STARTCHAR Idieresis
ENCODING 207
SWIDTH 437 0
DWIDTH 7 0
BBX 3 9 0 0
BITMAP
A0
00
E0
40
40
40
40
40
E0
ENDCHAR
STARTCHAR Eth
ENCODING 208
SWIDTH 437 0
DWIDTH 7 0
BBX 5 7 -1 0
BITMAP
60
50
48
E8
48
50
60
ENDCHAR
STARTCHAR Ntilde
ENCODING 209
SWIDTH 437 0
DWIDTH 7 0
BBX 4 9 0 0
BITMAP
50
A0
90
D0
D0
B0
B0
90
90
ENDCHAR
STARTCHAR Ograve
ENCODING 210
SWIDTH 437 0
DWIDTH 7 0
BBX 4 9 0 0
BITMAP
40
20
60
90
90
90
90
90
60
ENDCHAR
STARTCHAR Oacute
ENCODING 211
SWIDTH 437 0
DWIDTH 7 0
BBX 4 9 0 0
BITMAP
20
40
60
90
90
90
90
90
60
ENDCHAR
STARTCHAR Ocircumflex
ENCODING 212
SWIDTH 437 0
DWIDTH 7 0
BBX 4 9 0 0
BITMAP
60
90
60
90
90
90
90
90
60
ENDCHAR
STARTCHAR Otilde
ENCODING 213
SWIDTH 437 0
DWIDTH 7 0
BBX 4 9 0 0
BITMAP
50
A0
60
90
90
90
90
90
60
ENDCHAR
STARTCHAR Odieresis
ENCODING 214
SWIDTH 437 0
DWIDTH 7 0
BBX 4 9 0 0
BITMAP
50
00
60
90
90
90
90
90
60
ENDCHAR
STARTCHAR multiply
ENCODING 215
SWIDTH 437 0
DWIDTH 7 0
BBX 4 4 0 0
BITMAP
90
60
60
90
ENDCHAR
STARTCHAR Oslash
ENCODING 216
SWIDTH 437 0
DWIDTH 7 0
BBX 6 7 -1 0
BITMAP
34
4C
58
68
48
C8
B0
ENDCHAR
STARTCHAR Ugrave
ENCODING 217
SWIDTH 437 0
DWIDTH 7 0
BBX 4 9 0 0
BITMAP
40
20
90
90
90
90
90
90
70
ENDCHAR
STARTCHAR Uacute
ENCODING 218
SWIDTH 437 0
DWIDTH 7 0
BBX 4 9 0 0
BITMAP
20
40
90
90
90
90
90
90
70
ENDCHAR
STARTCHAR Ucircumflex
ENCODING 219
SWIDTH 437 0
DWIDTH 7 0
BBX 4 9 0 0
BITMAP
20
50
00
90
90
90
90
90
70
ENDCHAR
STARTCHAR Udieresis
ENCODING 220
SWIDTH 437 0
DWIDTH 7 0
BBX 4 9 0 0
BITMAP
90
00
90
90
90
90
90
90
70
ENDCHAR
STARTCHAR Yacute
ENCODING 221
SWIDTH 437 0
DWIDTH 7 0
BBX 4 9 0 0
BITMAP
20
40
90
90
90
70
10
90
70
ENDCHAR
STARTCHAR Thorn
ENCODING 222
SWIDTH 437 0
DWIDTH 7 0
BBX 4 9 0 -2
BITMAP
80
80
E0
90
90
90
E0
80
80
ENDCHAR
STARTCHAR germandbls
ENCODING 223
SWIDTH 437 0
DWIDTH 7 0
BBX 5 8 -1 -2
BITMAP
60
50
50
68
48
70
40
80
ENDCHAR
STARTCHAR agrave
ENCODING 224
SWIDTH 437 0
DWIDTH 7 0
BBX 4 8 0 0
BITMAP
40
20
00
70
90
90
90
70
ENDCHAR
STARTCHAR aacute
ENCODING 225
SWIDTH 437 0
DWIDTH 7 0
BBX 4 8 0 0
BITMAP
20
40
00
70
90
90
90
70
ENDCHAR
STARTCHAR acircumflex
ENCODING 226
SWIDTH 437 0
DWIDTH 7 0
BBX 4 8 0 0
BITMAP
20
50
00
70
90
90
90
70
ENDCHAR
STARTCHAR atilde
ENCODING 227
SWIDTH 437 0
DWIDTH 7 0
BBX 4 8 0 0
BITMAP
50
A0
00
70
90
90
90
70
ENDCHAR
STARTCHAR adieresis
ENCODING 228
SWIDTH 437 0
DWIDTH 7 0
BBX 4 7 0 0
BITMAP
50
00
70
90
90
90
70
ENDCHAR
STARTCHAR aring
ENCODING 229
SWIDTH 437 0
DWIDTH 7 0
BBX 4 7 0 0
BITMAP
20
00
70
90
90
90
70
ENDCHAR
STARTCHAR ae
ENCODING 230
SWIDTH 437 0
DWIDTH 7 0
BBX 4 5 0 0
BITMAP
70
A0
F0
A0
B0
ENDCHAR
STARTCHAR ccedilla
ENCODING 231
SWIDTH 437 0
DWIDTH 7 0
BBX 4 7 0 -2
BITMAP
60
90
80
90
60
20
60
ENDCHAR
STARTCHAR egrave
ENCODING 232
SWIDTH 437 0
DWIDTH 7 0
BBX 4 8 0 0
BITMAP
40
20
00
60
90
F0
80
70
ENDCHAR
STARTCHAR eacute
ENCODING 233
SWIDTH 437 0
DWIDTH 7 0
BBX 4 8 0 0
BITMAP
20
40
00
60
90
F0
80
70
ENDCHAR
STARTCHAR ecircumflex
ENCODING 234
SWIDTH 437 0
DWIDTH 7 0
BBX 4 8 0 0
BITMAP
20
50
00
60
90
F0
80
70
ENDCHAR
STARTCHAR edieresis
ENCODING 235
SWIDTH 437 0
DWIDTH 7 0
BBX 4 7 0 0
BITMAP
50
00
60
90
F0
80
70
ENDCHAR
STARTCHAR igrave
ENCODING 236
SWIDTH 437 0
DWIDTH 7 0
BBX 3 8 0 0
BITMAP
80
40
00
C0
40
40
40
60
ENDCHAR
STARTCHAR iacute
ENCODING 237
SWIDTH 437 0
DWIDTH 7 0
BBX 3 8 0 0
BITMAP
20
40
00
C0
40
40
40
60
ENDCHAR
STARTCHAR icircumflex
ENCODING 238
SWIDTH 437 0
DWIDTH 7 0
BBX 3 8 0 0
BITMAP
40
A0
00
C0
40
40
40
60
ENDCHAR
STARTCHAR idieresis
ENCODING 239
SWIDTH 437 0
DWIDTH 7 0
BBX 3 7 0 0
BITMAP
A0
00
C0
40
40
40
60
ENDCHAR
STARTCHAR eth
ENCODING 240
SWIDTH 437 0
DWIDTH 7 0
BBX 4 7 0 0
BITMAP
60
10
70
90
90
90
60
ENDCHAR
STARTCHAR ntilde
ENCODING 241
SWIDTH 437 0
DWIDTH 7 0
BBX 4 8 0 0
BITMAP
50
A0
00
E0
90
90
90
90
ENDCHAR
STARTCHAR ograve
ENCODING 242
SWIDTH 437 0
DWIDTH 7 0
BBX 4 8 0 0
BITMAP
40
20
00
60
90
90
90
60
ENDCHAR
STARTCHAR oacute
ENCODING 243
SWIDTH 437 0
DWIDTH 7 0
BBX 4 8 0 0
BITMAP
40
20
00
60
90
90
90
60
ENDCHAR
STARTCHAR ocircumflex
ENCODING 244
SWIDTH 437 0
DWIDTH 7 0
BBX 4 8 0 0
BITMAP
60
90
00
60
90
90
90
60
ENDCHAR
STARTCHAR otilde
ENCODING 245
SWIDTH 437 0
DWIDTH 7 0
BBX 4 8 0 0
BITMAP
50
A0
00
60
90
90
90
60
ENDCHAR
STARTCHAR odieresis
ENCODING 246
SWIDTH 437 0
DWIDTH 7 0
BBX 4 7 0 0
BITMAP
50
00
60
90
90
90
60
ENDCHAR
STARTCHAR divide
ENCODING 247
SWIDTH 437 0
DWIDTH 7 0
BBX 4 5 0 0
BITMAP
60
00
F0
00
60
ENDCHAR
STARTCHAR oslash
ENCODING 248
SWIDTH 437 0
DWIDTH 7 0
BBX 6 6 -1 0
BITMAP
04
38
58
68
48
B0
ENDCHAR
STARTCHAR ugrave
ENCODING 249
SWIDTH 437 0
DWIDTH 7 0
BBX 4 8 0 0
BITMAP
40
20
00
90
90
90
90
70
ENDCHAR
STARTCHAR uacute
ENCODING 250
SWIDTH 437 0
DWIDTH 7 0
BBX 4 8 0 0
BITMAP
20
40
00
90
90
90
90
70
ENDCHAR
STARTCHAR ucircumflex
ENCODING 251
SWIDTH 437 0
DWIDTH 7 0
BBX 4 8 0 0
BITMAP
60
90
00
90
90
90
90
70
ENDCHAR
STARTCHAR udieresis
ENCODING 252
SWIDTH 437 0
DWIDTH 7 0
BBX 4 7 0 0
BITMAP
50
00
90
90
90
90
60
ENDCHAR
STARTCHAR yacute
ENCODING 253
SWIDTH 437 0
DWIDTH 7 0
BBX 4 10 0 -2
BITMAP
20
40
00
90
90
90
90
70
90
60
ENDCHAR
STARTCHAR thorn
ENCODING 254
SWIDTH 437 0
DWIDTH 7 0
BBX 4 8 0 -2
BITMAP
80
80
E0
90
90
E0
80
80
ENDCHAR
STARTCHAR ydieresis
ENCODING 255
SWIDTH 437 0
DWIDTH 7 0
BBX 4 9 0 -2
BITMAP
50
00
90
90
90
90
70
90
60
ENDCHAR
STARTCHAR Alpha
ENCODING 913
SWIDTH 437 0
DWIDTH 7 0
BBX 4 7 0 0
BITMAP
60
90
90
F0
90
90
90
ENDCHAR
STARTCHAR Beta
ENCODING 914
SWIDTH 437 0
DWIDTH 7 0
BBX 4 7 0 0
BITMAP
C0
A0
A0
E0
90
90
F0
ENDCHAR
STARTCHAR Gamma
ENCODING 915
SWIDTH 437 0
DWIDTH 7 0
BBX 4 7 0 0
BITMAP
F0
90
80
80
80
80
80
ENDCHAR
STARTCHAR Deltagreek
ENCODING 916
SWIDTH 437 0
DWIDTH 7 0
BBX 5 7 0 0
BITMAP
20
20
50
50
88
88
F8
ENDCHAR
STARTCHAR Epsilon
ENCODING 917
SWIDTH 437 0
DWIDTH 7 0
BBX 4 7 0 0
BITMAP
F0
80
80
C0
80
80
F0
ENDCHAR
STARTCHAR Zeta
ENCODING 918
SWIDTH 437 0
DWIDTH 7 0
BBX 4 7 0 0
BITMAP
F0
10
10
20
40
80
F0
ENDCHAR
STARTCHAR Eta
ENCODING 919
SWIDTH 437 0
DWIDTH 7 0
BBX 4 7 0 0
BITMAP
90
90
F0
90
90
90
90
ENDCHAR
STARTCHAR Theta
ENCODING 920
SWIDTH 437 0
DWIDTH 7 0
BBX 4 7 0 0
BITMAP
60
90
90
F0
90
90
60
ENDCHAR
STARTCHAR Iota
ENCODING 921
SWIDTH 437 0
DWIDTH 7 0
BBX 3 7 0 0
BITMAP
E0
40
40
40
40
40
E0
ENDCHAR
STARTCHAR Kappa
ENCODING 922
SWIDTH 437 0
DWIDTH 7 0
BBX 4 7 0 0
BITMAP
90
A0
C0
A0
A0
90
90
ENDCHAR
STARTCHAR Lambda
ENCODING 923
SWIDTH 437 0
DWIDTH 7 0
BBX 5 7 0 0
BITMAP
20
20
50
50
88
88
88
ENDCHAR
STARTCHAR Mu
ENCODING 924
SWIDTH 437 0
DWIDTH 7 0
BBX 4 7 0 0
BITMAP
90
F0
90
90
90
90
90
ENDCHAR
STARTCHAR Nu
ENCODING 925
SWIDTH 437 0
DWIDTH 7 0
BBX 4 7 0 0
BITMAP
90
D0
D0
B0
B0
90
90
ENDCHAR
STARTCHAR Xi
ENCODING 926
SWIDTH 437 0
DWIDTH 7 0
BBX 4 7 0 0
BITMAP
F0
90
00
60
00
90
F0
ENDCHAR
STARTCHAR Omicron
ENCODING 927
SWIDTH 437 0
DWIDTH 7 0
BBX 4 7 0 0
BITMAP
60
90
90
90
90
90
60
ENDCHAR
STARTCHAR Pi
ENCODING 928
SWIDTH 437 0
DWIDTH 7 0
BBX 4 7 0 0
BITMAP
F0
90
90
90
90
90
90
ENDCHAR
STARTCHAR Rho
ENCODING 929
SWIDTH 437 0
DWIDTH 7 0
BBX 4 7 0 0
BITMAP
E0
90
90
E0
80
80
80
ENDCHAR
STARTCHAR uni03A2
ENCODING 930
SWIDTH 437 0
DWIDTH 7 0
BBX 4 7 0 0
BITMAP
F0
90
40
20
40
90
F0
ENDCHAR
STARTCHAR Sigma
ENCODING 931
SWIDTH 437 0
DWIDTH 7 0
BBX 3 7 0 0
BITMAP
E0
40
40
40
40
40
40
ENDCHAR
STARTCHAR Tau
ENCODING 932
SWIDTH 437 0
DWIDTH 7 0
BBX 4 7 0 0
BITMAP
90
90
90
70
10
90
60
ENDCHAR
STARTCHAR Upsilon
ENCODING 933
SWIDTH 437 0
DWIDTH 7 0
BBX 5 7 0 0
BITMAP
20
70
A8
A8
A8
70
20
ENDCHAR
STARTCHAR Phi
ENCODING 934
SWIDTH 437 0
DWIDTH 7 0
BBX 4 7 0 0
BITMAP
90
90
60
90
90
90
90
ENDCHAR
STARTCHAR Chi
ENCODING 935
SWIDTH 437 0
DWIDTH 7 0
BBX 5 7 0 0
BITMAP
A8
A8
A8
70
20
20
20
ENDCHAR
STARTCHAR Psi
ENCODING 936
SWIDTH 437 0
DWIDTH 7 0
BBX 5 7 0 0
BITMAP
70
88
88
88
D8
50
D8
ENDCHAR
STARTCHAR Omegagreek
ENCODING 937
SWIDTH 437 0
DWIDTH 7 0
BBX 3 7 0 0
BITMAP
A0
00
E0
40
40
40
E0
ENDCHAR
STARTCHAR alpha
ENCODING 945
SWIDTH 437 0
DWIDTH 7 0
BBX 4 4 0 0
BITMAP
50
A0
A0
70
ENDCHAR
STARTCHAR beta
ENCODING 946
SWIDTH 437 0
DWIDTH 7 0
BBX 5 8 -1 -2
BITMAP
60
50
50
68
48
70
40
80
ENDCHAR
STARTCHAR gamma
ENCODING 947
SWIDTH 437 0
DWIDTH 7 0
BBX 4 6 0 -2
BITMAP
90
60
20
50
50
20
ENDCHAR
STARTCHAR delta
ENCODING 948
SWIDTH 437 0
DWIDTH 7 0
BBX 4 6 0 0
BITMAP
F0
80
60
90
90
60
ENDCHAR
STARTCHAR epsilon
ENCODING 949
SWIDTH 437 0
DWIDTH 7 0
BBX 4 6 0 0
BITMAP
60
90
40
80
90
60
ENDCHAR
STARTCHAR zeta
ENCODING 950
SWIDTH 437 0
DWIDTH 7 0
BBX 4 7 0 -2
BITMAP
F0
20
40
80
80
70
10
ENDCHAR
STARTCHAR eta
ENCODING 951
SWIDTH 437 0
DWIDTH 7 0
BBX 4 7 0 -2
BITMAP
E0
90
90
90
90
10
10
ENDCHAR
STARTCHAR theta
ENCODING 952
SWIDTH 437 0
DWIDTH 7 0
BBX 4 5 0 0
BITMAP
60
90
F0
90
60
ENDCHAR
STARTCHAR iota
ENCODING 953
SWIDTH 437 0
DWIDTH 7 0
BBX 3 4 0 0
BITMAP
C0
40
40
20
ENDCHAR
STARTCHAR kappa
ENCODING 954
SWIDTH 437 0
DWIDTH 7 0
BBX 3 5 0 0
BITMAP
A0
C0
E0
A0
A0
ENDCHAR
STARTCHAR lambda
ENCODING 955
SWIDTH 437 0
DWIDTH 7 0
BBX 4 6 0 0
BITMAP
40
A0
20
60
A0
90
ENDCHAR
STARTCHAR mugreek
ENCODING 956
SWIDTH 437 0
DWIDTH 7 0
BBX 5 7 -1 -2
BITMAP
48
48
48
48
70
40
80
ENDCHAR
STARTCHAR nu
ENCODING 957
SWIDTH 437 0
DWIDTH 7 0
BBX 4 6 0 0
BITMAP
20
90
50
50
60
40
ENDCHAR
STARTCHAR xi
ENCODING 958
SWIDTH 437 0
DWIDTH 7 0
BBX 4 8 0 -2
BITMAP
E0
90
40
80
80
70
10
60
ENDCHAR
STARTCHAR omicron
ENCODING 959
SWIDTH 437 0
DWIDTH 7 0
BBX 4 5 0 0
BITMAP
60
90
90
90
60
ENDCHAR
STARTCHAR pi
ENCODING 960
SWIDTH 437 0
DWIDTH 7 0
BBX 4 5 0 0
BITMAP
F0
60
A0
A0
90
ENDCHAR
STARTCHAR rho
ENCODING 961
SWIDTH 437 0
DWIDTH 7 0
BBX 4 7 0 -2
BITMAP
20
50
50
60
40
40
80
ENDCHAR
STARTCHAR sigmafinal
ENCODING 962
SWIDTH 437 0
DWIDTH 7 0
BBX 4 7 0 -2
BITMAP
60
90
90
80
60
10
20
ENDCHAR
STARTCHAR sigma
ENCODING 963
SWIDTH 437 0
DWIDTH 7 0
BBX 5 6 0 0
BITMAP
08
70
90
90
90
60
ENDCHAR
STARTCHAR tau
ENCODING 964
SWIDTH 437 0
DWIDTH 7 0
BBX 4 5 0 0
BITMAP
F0
40
40
50
20
ENDCHAR
STARTCHAR upsilon
ENCODING 965
SWIDTH 437 0
DWIDTH 7 0
BBX 4 5 0 0
BITMAP
90
90
90
90
70
ENDCHAR
STARTCHAR phi
ENCODING 966
SWIDTH 437 0
DWIDTH 7 0
BBX 4 8 0 -3
BITMAP
40
B0
D0
F0
60
40
40
20
ENDCHAR
STARTCHAR chi
ENCODING 967
SWIDTH 437 0
DWIDTH 7 0
BBX 4 5 0 -1
BITMAP
90
60
60
A0
10
ENDCHAR
STARTCHAR psi
ENCODING 968
SWIDTH 437 0
DWIDTH 7 0
BBX 5 7 0 -2
BITMAP
20
A8
A8
70
20
20
20
ENDCHAR
STARTCHAR omega
ENCODING 969
SWIDTH 437 0
DWIDTH 7 0
BBX 5 5 0 0
BITMAP
50
88
88
A8
50
ENDCHAR
STARTCHAR uni1E9E
ENCODING 7838
SWIDTH 437 0
DWIDTH 7 0
BBX 5 8 -1 -2
BITMAP
60
50
50
68
48
78
40
C0
ENDCHAR
STARTCHAR hyphentwo
ENCODING 8208
SWIDTH 437 0
DWIDTH 7 0
BBX 3 1 0 2
BITMAP
E0
ENDCHAR
STARTCHAR uni2011
ENCODING 8209
SWIDTH 437 0
DWIDTH 7 0
BBX 3 1 0 2
BITMAP
E0
ENDCHAR
STARTCHAR figuredash
ENCODING 8210
SWIDTH 437 0
DWIDTH 7 0
BBX 4 1 0 2
BITMAP
F0
ENDCHAR
STARTCHAR endash
ENCODING 8211
SWIDTH 437 0
DWIDTH 7 0
BBX 4 1 0 2
BITMAP
F0
ENDCHAR
STARTCHAR emdash
ENCODING 8212
SWIDTH 437 0
DWIDTH 7 0
BBX 6 1 -1 2
BITMAP
FC
ENDCHAR
STARTCHAR horizontalbar
ENCODING 8213
SWIDTH 437 0
DWIDTH 7 0
BBX 6 1 -1 2
BITMAP
FC
ENDCHAR
STARTCHAR dblverticalbar
ENCODING 8214
SWIDTH 437 0
DWIDTH 7 0
BBX 4 7 0 0
BITMAP
50
50
50
50
50
50
50
ENDCHAR
STARTCHAR underscoredbl
ENCODING 8215
SWIDTH 437 0
DWIDTH 7 0
BBX 4 3 0 -1
BITMAP
F0
00
F0
ENDCHAR
STARTCHAR quoteleft
ENCODING 8216
SWIDTH 437 0
DWIDTH 7 0
BBX 2 3 1 4
BITMAP
C0
80
40
ENDCHAR
STARTCHAR quoteright
ENCODING 8217
SWIDTH 437 0
DWIDTH 7 0
BBX 2 3 1 4
BITMAP
C0
40
80
ENDCHAR
STARTCHAR quotesinglbase
ENCODING 8218
SWIDTH 437 0
DWIDTH 7 0
BBX 2 3 2 -2
BITMAP
C0
40
80
ENDCHAR
STARTCHAR quoteleftreversed
ENCODING 8219
SWIDTH 437 0
DWIDTH 7 0
BBX 2 3 1 3
BITMAP
C0
80
40
ENDCHAR
STARTCHAR quotedblleft
ENCODING 8220
SWIDTH 437 0
DWIDTH 7 0
BBX 4 3 0 4
BITMAP
F0
A0
50
ENDCHAR
STARTCHAR quotedblright
ENCODING 8221
SWIDTH 437 0
DWIDTH 7 0
BBX 4 3 0 4
BITMAP
F0
50
A0
ENDCHAR
STARTCHAR quotedblbase
ENCODING 8222
SWIDTH 437 0
DWIDTH 7 0
BBX 4 3 0 -2
BITMAP
F0
50
A0
ENDCHAR
STARTCHAR uni201F
ENCODING 8223
SWIDTH 437 0
DWIDTH 7 0
BBX 4 3 0 4
BITMAP
50
A0
F0
ENDCHAR
STARTCHAR dagger
ENCODING 8224
SWIDTH 437 0
DWIDTH 7 0
BBX 3 5 0 0
BITMAP
40
E0
40
40
40
ENDCHAR
STARTCHAR daggerdbl
ENCODING 8225
SWIDTH 437 0
DWIDTH 7 0
BBX 3 5 0 0
BITMAP
40
E0
40
E0
40
ENDCHAR
STARTCHAR bullet
ENCODING 8226
SWIDTH 437 0
DWIDTH 7 0
BBX 3 3 1 1
BITMAP
40
A0
40
ENDCHAR
STARTCHAR uni2023
ENCODING 8227
SWIDTH 437 0
DWIDTH 7 0
BBX 2 3 0 1
BITMAP
80
C0
80
ENDCHAR
STARTCHAR onedotenleader
ENCODING 8228
SWIDTH 437 0
DWIDTH 7 0
BBX 2 1 1 0
BITMAP
40
ENDCHAR
STARTCHAR twodotleader
ENCODING 8229
SWIDTH 437 0
DWIDTH 7 0
BBX 4 1 0 0
BITMAP
50
ENDCHAR
STARTCHAR ellipsis
ENCODING 8230
SWIDTH 437 0
DWIDTH 7 0
BBX 5 1 0 0
BITMAP
A8
ENDCHAR
STARTCHAR uni2027
ENCODING 8231
SWIDTH 437 0
DWIDTH 7 0
BBX 1 1 2 2
BITMAP
80
ENDCHAR
STARTCHAR minute
ENCODING 8242
SWIDTH 437 0
DWIDTH 7 0
BBX 2 2 1 5
BITMAP
40
80
ENDCHAR
STARTCHAR second
ENCODING 8243
SWIDTH 437 0
DWIDTH 7 0
BBX 4 2 1 5
BITMAP
50
A0
ENDCHAR
STARTCHAR uni2034
ENCODING 8244
SWIDTH 437 0
DWIDTH 7 0
BBX 6 2 0 5
BITMAP
54
A8
ENDCHAR
STARTCHAR primereversed
ENCODING 8245
SWIDTH 437 0
DWIDTH 7 0
BBX 2 2 1 5
BITMAP
80
40
ENDCHAR
STARTCHAR uni2036
ENCODING 8246
SWIDTH 437 0
DWIDTH 7 0
BBX 4 2 1 5
BITMAP
A0
50
ENDCHAR
STARTCHAR uni2037
ENCODING 8247
SWIDTH 437 0
DWIDTH 7 0
BBX 6 2 0 5
BITMAP
A8
54
ENDCHAR
STARTCHAR uni2038
ENCODING 8248
SWIDTH 437 0
DWIDTH 7 0
BBX 3 2 0 0
BITMAP
40
A0
ENDCHAR
STARTCHAR guilsinglleft
ENCODING 8249
SWIDTH 437 0
DWIDTH 7 0
BBX 4 7 0 -1
BITMAP
10
20
40
80
40
20
10
ENDCHAR
STARTCHAR guilsinglright
ENCODING 8250
SWIDTH 437 0
DWIDTH 7 0
BBX 4 7 0 -1
BITMAP
80
40
20
10
20
40
80
ENDCHAR
STARTCHAR exclamdbl
ENCODING 8252
SWIDTH 437 0
DWIDTH 7 0
BBX 3 7 0 0
BITMAP
A0
A0
A0
A0
A0
00
A0
ENDCHAR
STARTCHAR char8253
ENCODING 8253
SWIDTH 437 0
DWIDTH 7 0
BBX 4 7 0 0
BITMAP
E0
50
70
40
40
00
40
ENDCHAR
STARTCHAR overline
ENCODING 8254
SWIDTH 437 0
DWIDTH 7 0
BBX 4 1 0 6
BITMAP
F0
ENDCHAR
STARTCHAR uni203F
ENCODING 8255
SWIDTH 437 0
DWIDTH 7 0
BBX 4 2 0 5
BITMAP
90
60
ENDCHAR
STARTCHAR uni2040
ENCODING 8256
SWIDTH 437 0
DWIDTH 7 0
BBX 4 2 0 5
BITMAP
60
90
ENDCHAR
STARTCHAR uni2041
ENCODING 8257
SWIDTH 437 0
DWIDTH 7 0
BBX 4 4 0 0
BITMAP
10
20
40
A0
ENDCHAR
STARTCHAR asterism
ENCODING 8258
SWIDTH 437 0
DWIDTH 7 0
BBX 3 3 0 2
BITMAP
40
00
A0
ENDCHAR
STARTCHAR char8259
ENCODING 8259
SWIDTH 437 0
DWIDTH 7 0
BBX 4 1 0 2
BITMAP
F0
ENDCHAR
STARTCHAR char8260
ENCODING 8260
SWIDTH 437 0
DWIDTH 7 0
BBX 4 8 0 -1
BITMAP
10
10
20
20
40
40
80
80
ENDCHAR
STARTCHAR char8261
ENCODING 8261
SWIDTH 437 0
DWIDTH 7 0
BBX 2 8 1 -1
BITMAP
C0
80
80
C0
C0
80
80
C0
ENDCHAR
STARTCHAR char8262
ENCODING 8262
SWIDTH 437 0
DWIDTH 7 0
BBX 3 8 0 -1
BITMAP
60
20
20
60
60
20
20
60
ENDCHAR
STARTCHAR uni204F
ENCODING 8271
SWIDTH 437 0
DWIDTH 7 0
BBX 2 4 1 -1
BITMAP
80
00
80
40
ENDCHAR
STARTCHAR uni2050
ENCODING 8272
SWIDTH 437 0
DWIDTH 7 0
BBX 4 6 0 0
BITMAP
60
90
00
00
90
60
ENDCHAR
STARTCHAR uni2051
ENCODING 8273
SWIDTH 437 0
DWIDTH 7 0
BBX 3 7 0 0
BITMAP
A0
40
A0
00
A0
40
A0
ENDCHAR
STARTCHAR Euro
ENCODING 8364
SWIDTH 437 0
DWIDTH 7 0
BBX 4 6 0 0
BITMAP
70
80
E0
E0
80
70
ENDCHAR
STARTCHAR arrowleft
ENCODING 8592
SWIDTH 437 0
DWIDTH 7 0
BBX 5 3 0 1
BITMAP
40
F8
40
ENDCHAR
STARTCHAR arrowup
ENCODING 8593
SWIDTH 437 0
DWIDTH 7 0
BBX 3 5 0 0
BITMAP
40
E0
40
40
40
ENDCHAR
STARTCHAR arrowright
ENCODING 8594
SWIDTH 437 0
DWIDTH 7 0
BBX 5 3 -1 1
BITMAP
10
F8
10
ENDCHAR
STARTCHAR arrowdown
ENCODING 8595
SWIDTH 437 0
DWIDTH 7 0
BBX 3 5 0 0
BITMAP
40
40
40
E0
40
ENDCHAR
STARTCHAR arrowboth
ENCODING 8596
SWIDTH 437 0
DWIDTH 7 0
BBX 6 3 -1 1
BITMAP
48
FC
48
ENDCHAR
STARTCHAR arrowupdn
ENCODING 8597
SWIDTH 437 0
DWIDTH 7 0
BBX 3 6 0 -1
BITMAP
40
E0
40
40
E0
40
ENDCHAR
STARTCHAR arrowupleft
ENCODING 8598
SWIDTH 437 0
DWIDTH 7 0
BBX 4 4 0 0
BITMAP
C0
C0
20
10
ENDCHAR
STARTCHAR arrowupright
ENCODING 8599
SWIDTH 437 0
DWIDTH 7 0
BBX 4 4 0 0
BITMAP
30
30
40
80
ENDCHAR
STARTCHAR arrowdownright
ENCODING 8600
SWIDTH 437 0
DWIDTH 7 0
BBX 4 4 0 0
BITMAP
80
40
30
30
ENDCHAR
STARTCHAR arrowdownleft
ENCODING 8601
SWIDTH 437 0
DWIDTH 7 0
BBX 4 4 0 0
BITMAP
10
20
C0
C0
ENDCHAR
STARTCHAR arrowdblleft
ENCODING 8656
SWIDTH 437 0
DWIDTH 7 0
BBX 6 5 -1 0
BITMAP
20
7C
C0
7C
20
ENDCHAR
STARTCHAR arrowdblup
ENCODING 8657
SWIDTH 437 0
DWIDTH 7 0
BBX 0 0 0 0
BITMAP
ENDCHAR
STARTCHAR dblarrowright
ENCODING 8658
SWIDTH 437 0
DWIDTH 7 0
BBX 5 5 -1 0
BITMAP
20
F0
18
F0
20
ENDCHAR
STARTCHAR char8682
ENCODING 8682
SWIDTH 437 0
DWIDTH 7 0
BBX 5 8 0 -1
BITMAP
20
50
88
50
50
70
00
70
ENDCHAR
STARTCHAR forall
ENCODING 8704
SWIDTH 437 0
DWIDTH 7 0
BBX 4 7 0 0
BITMAP
90
90
90
F0
90
90
60
ENDCHAR
STARTCHAR uni2201
ENCODING 8705
SWIDTH 437 0
DWIDTH 7 0
BBX 4 7 0 0
BITMAP
60
90
A0
80
90
90
60
ENDCHAR
STARTCHAR partialdiff
ENCODING 8706
SWIDTH 437 0
DWIDTH 7 0
BBX 4 7 0 0
BITMAP
60
90
10
70
90
90
60
ENDCHAR
STARTCHAR thereexists
ENCODING 8707
SWIDTH 437 0
DWIDTH 7 0
BBX 4 7 0 0
BITMAP
F0
10
10
70
10
10
F0
ENDCHAR
STARTCHAR uni2204
ENCODING 8708
SWIDTH 437 0
DWIDTH 7 0
BBX 5 8 -1 0
BITMAP
08
78
18
28
38
48
48
F8
ENDCHAR
STARTCHAR emptyset
ENCODING 8709
SWIDTH 437 0
DWIDTH 7 0
BBX 4 6 0 0
BITMAP
10
60
B0
D0
60
80
ENDCHAR
STARTCHAR increment
ENCODING 8710
SWIDTH 437 0
DWIDTH 7 0
BBX 5 4 0 1
BITMAP
20
50
88
F8
ENDCHAR
STARTCHAR gradient
ENCODING 8711
SWIDTH 437 0
DWIDTH 7 0
BBX 5 4 0 2
BITMAP
F8
88
50
20
ENDCHAR
STARTCHAR element
ENCODING 8712
SWIDTH 437 0
DWIDTH 7 0
BBX 4 5 0 0
BITMAP
70
80
E0
80
70
ENDCHAR
STARTCHAR notelement
ENCODING 8713
SWIDTH 437 0
DWIDTH 7 0
BBX 6 6 -1 0
BITMAP
04
38
50
70
40
B8
ENDCHAR
STARTCHAR uni220A
ENCODING 8714
SWIDTH 437 0
DWIDTH 7 0
BBX 4 5 0 0
BITMAP
70
80
E0
80
70
ENDCHAR
STARTCHAR suchthat
ENCODING 8715
SWIDTH 437 0
DWIDTH 7 0
BBX 4 5 0 0
BITMAP
E0
10
70
10
E0
ENDCHAR
STARTCHAR notcontains
ENCODING 8716
SWIDTH 437 0
DWIDTH 7 0
BBX 6 6 -1 0
BITMAP
04
78
18
38
48
F0
ENDCHAR
STARTCHAR uni220D
ENCODING 8717
SWIDTH 437 0
DWIDTH 7 0
BBX 4 5 0 0
BITMAP
E0
10
70
10
E0
ENDCHAR
STARTCHAR uni220E
ENCODING 8718
SWIDTH 437 0
DWIDTH 7 0
BBX 3 3 1 1
BITMAP
E0
E0
E0
ENDCHAR
STARTCHAR product
ENCODING 8719
SWIDTH 437 0
DWIDTH 7 0
BBX 6 6 -1 0
BITMAP
FC
48
48
48
48
48
ENDCHAR
STARTCHAR uni2210
ENCODING 8720
SWIDTH 437 0
DWIDTH 7 0
BBX 6 6 -1 0
BITMAP
48
48
48
48
48
FC
ENDCHAR
STARTCHAR summation
ENCODING 8721
SWIDTH 437 0
DWIDTH 7 0
BBX 4 6 0 0
BITMAP
F0
90
40
40
90
F0
ENDCHAR
STARTCHAR minus
ENCODING 8722
SWIDTH 437 0
DWIDTH 7 0
BBX 4 1 0 2
BITMAP
F0
ENDCHAR
STARTCHAR minusplus
ENCODING 8723
SWIDTH 437 0
DWIDTH 7 0
BBX 3 5 0 0
BITMAP
E0
00
40
E0
40
ENDCHAR
STARTCHAR char8724
ENCODING 8724
SWIDTH 437 0
DWIDTH 7 0
BBX 3 5 0 1
BITMAP
40
00
40
E0
40
ENDCHAR
STARTCHAR notequal
ENCODING 8800
SWIDTH 437 0
DWIDTH 7 0
BBX 4 5 0 1
BITMAP
20
F0
40
F0
80
ENDCHAR
STARTCHAR uni229E
ENCODING 8862
SWIDTH 437 0
DWIDTH 7 0
BBX 5 5 0 0
BITMAP
F8
A8
F8
A8
F8
ENDCHAR
STARTCHAR uni229F
ENCODING 8863
SWIDTH 437 0
DWIDTH 7 0
BBX 5 5 0 0
BITMAP
F8
88
F8
88
F8
ENDCHAR
STARTCHAR SF100000
ENCODING 9472
SWIDTH 437 0
DWIDTH 7 0
BBX 6 1 0 3
BITMAP
FC
ENDCHAR
STARTCHAR uni2501
ENCODING 9473
SWIDTH 437 0
DWIDTH 7 0
BBX 6 2 0 3
BITMAP
FC
FC
ENDCHAR
STARTCHAR SF110000
ENCODING 9474
SWIDTH 437 0
DWIDTH 7 0
BBX 1 12 2 -3
BITMAP
80
80
80
80
80
80
80
80
80
80
80
80
ENDCHAR
STARTCHAR uni2503
ENCODING 9475
SWIDTH 437 0
DWIDTH 7 0
BBX 2 12 1 -3
BITMAP
C0
C0
C0
C0
C0
C0
C0
C0
C0
C0
C0
C0
ENDCHAR
STARTCHAR uni2504
ENCODING 9476
SWIDTH 437 0
DWIDTH 7 0
BBX 5 1 0 3
BITMAP
A8
ENDCHAR
STARTCHAR uni2505
ENCODING 9477
SWIDTH 437 0
DWIDTH 7 0
BBX 5 2 0 3
BITMAP
A8
A8
ENDCHAR
STARTCHAR uni2506
ENCODING 9478
SWIDTH 437 0
DWIDTH 7 0
BBX 3 11 0 -3
BITMAP
20
20
00
20
20
00
20
20
00
20
20
ENDCHAR
STARTCHAR uni2507
ENCODING 9479
SWIDTH 437 0
DWIDTH 7 0
BBX 2 11 1 -3
BITMAP
C0
C0
00
C0
C0
00
C0
C0
00
C0
C0
ENDCHAR
STARTCHAR uni2508
ENCODING 9480
SWIDTH 437 0
DWIDTH 7 0
BBX 5 1 0 3
BITMAP
A8
ENDCHAR
STARTCHAR uni2509
ENCODING 9481
SWIDTH 437 0
DWIDTH 7 0
BBX 5 2 0 3
BITMAP
A8
A8
ENDCHAR
STARTCHAR uni250A
ENCODING 9482
SWIDTH 437 0
DWIDTH 7 0
BBX 3 11 0 -3
BITMAP
20
00
20
00
20
00
20
00
20
00
20
ENDCHAR
STARTCHAR uni250B
ENCODING 9483
SWIDTH 437 0
DWIDTH 7 0
BBX 3 11 0 -3
BITMAP
60
00
60
00
60
00
60
00
60
00
60
ENDCHAR
STARTCHAR SF010000
ENCODING 9484
SWIDTH 437 0
DWIDTH 7 0
BBX 4 7 2 -3
BITMAP
F0
80
80
80
80
80
80
ENDCHAR
STARTCHAR uni250D
ENCODING 9485
SWIDTH 437 0
DWIDTH 7 0
BBX 6 8 0 -3
BITMAP
3C
3C
20
20
20
20
20
20
ENDCHAR
STARTCHAR uni250E
ENCODING 9486
SWIDTH 437 0
DWIDTH 7 0
BBX 5 7 1 -3
BITMAP
F8
C0
C0
C0
C0
C0
C0
ENDCHAR
STARTCHAR uni250F
ENCODING 9487
SWIDTH 437 0
DWIDTH 7 0
BBX 6 8 0 -3
BITMAP
7C
7C
60
60
60
60
60
60
ENDCHAR
STARTCHAR SF030000
ENCODING 9488
SWIDTH 437 0
DWIDTH 7 0
BBX 4 7 -1 -3
BITMAP
F0
10
10
10
10
10
10
ENDCHAR
STARTCHAR uni2511
ENCODING 9489
SWIDTH 437 0
DWIDTH 7 0
BBX 4 8 -1 -3
BITMAP
F0
F0
10
10
10
10
10
10
ENDCHAR
STARTCHAR uni2512
ENCODING 9490
SWIDTH 437 0
DWIDTH 7 0
BBX 4 7 -1 -3
BITMAP
F0
30
30
30
30
30
30
ENDCHAR
STARTCHAR uni2513
ENCODING 9491
SWIDTH 437 0
DWIDTH 7 0
BBX 4 8 -1 -3
BITMAP
F0
F0
30
30
30
30
30
30
ENDCHAR
STARTCHAR SF020000
ENCODING 9492
SWIDTH 437 0
DWIDTH 7 0
BBX 4 6 2 3
BITMAP
80
80
80
80
80
F0
ENDCHAR
STARTCHAR uni2515
ENCODING 9493
SWIDTH 437 0
DWIDTH 7 0
BBX 4 6 2 3
BITMAP
80
80
80
80
F0
F0
ENDCHAR
STARTCHAR uni2516
ENCODING 9494
SWIDTH 437 0
DWIDTH 7 0
BBX 5 6 1 3
BITMAP
C0
C0
C0
C0
C0
F8
ENDCHAR
STARTCHAR uni2517
ENCODING 9495
SWIDTH 437 0
DWIDTH 7 0
BBX 5 6 1 3
BITMAP
C0
C0
C0
C0
F8
F8
ENDCHAR
STARTCHAR SF040000
ENCODING 9496
SWIDTH 437 0
DWIDTH 7 0
BBX 4 6 -1 3
BITMAP
10
10
10
10
10
F0
ENDCHAR
STARTCHAR uni2519
ENCODING 9497
SWIDTH 437 0
DWIDTH 7 0
BBX 4 6 -1 3
BITMAP
10
10
10
10
F0
F0
ENDCHAR
STARTCHAR uni251A
ENCODING 9498
SWIDTH 437 0
DWIDTH 7 0
BBX 4 6 -1 3
BITMAP
30
30
30
30
30
F0
ENDCHAR
STARTCHAR uni251B
ENCODING 9499
SWIDTH 437 0
DWIDTH 7 0
BBX 4 6 -1 3
BITMAP
30
30
30
30
F0
F0
ENDCHAR
STARTCHAR SF080000
ENCODING 9500
SWIDTH 437 0
DWIDTH 7 0
BBX 4 12 2 -3
BITMAP
80
80
80
80
80
F0
80
80
80
80
80
80
ENDCHAR
STARTCHAR uni251D
ENCODING 9501
SWIDTH 437 0
DWIDTH 7 0
BBX 4 12 2 -3
BITMAP
80
80
80
80
F0
F0
80
80
80
80
80
80
ENDCHAR
STARTCHAR uni251E
ENCODING 9502
SWIDTH 437 0
DWIDTH 7 0
BBX 5 12 1 -3
BITMAP
C0
C0
C0
C0
C0
F8
40
40
40
40
40
40
ENDCHAR
STARTCHAR uni251F
ENCODING 9503
SWIDTH 437 0
DWIDTH 7 0
BBX 5 12 1 -3
BITMAP
40
40
40
40
40
F8
C0
C0
C0
C0
C0
C0
ENDCHAR
STARTCHAR uni2520
ENCODING 9504
SWIDTH 437 0
DWIDTH 7 0
BBX 6 12 0 -3
BITMAP
60
60
60
60
60
7C
60
60
60
60
60
60
ENDCHAR
STARTCHAR uni2521
ENCODING 9505
SWIDTH 437 0
DWIDTH 7 0
BBX 5 12 1 -3
BITMAP
C0
C0
C0
C0
F8
F8
40
40
40
40
40
40
ENDCHAR
STARTCHAR uni2522
ENCODING 9506
SWIDTH 437 0
DWIDTH 7 0
BBX 5 12 1 -3
BITMAP
40
40
40
40
F8
F8
C0
C0
C0
C0
C0
C0
ENDCHAR
STARTCHAR uni2523
ENCODING 9507
SWIDTH 437 0
DWIDTH 7 0
BBX 6 12 0 -3
BITMAP
60
60
60
60
7C
7C
60
60
60
60
60
60
ENDCHAR
STARTCHAR SF090000
ENCODING 9508
SWIDTH 437 0
DWIDTH 7 0
BBX 4 12 -1 -3
BITMAP
10
10
10
10
10
F0
10
10
10
10
10
10
ENDCHAR
STARTCHAR uni2525
ENCODING 9509
SWIDTH 437 0
DWIDTH 7 0
BBX 4 12 -1 -3
BITMAP
10
10
10
10
F0
F0
10
10
10
10
10
10
ENDCHAR
STARTCHAR uni2526
ENCODING 9510
SWIDTH 437 0
DWIDTH 7 0
BBX 4 12 -1 -3
BITMAP
30
30
30
30
30
F0
10
10
10
10
10
10
ENDCHAR
STARTCHAR uni2527
ENCODING 9511
SWIDTH 437 0
DWIDTH 7 0
BBX 4 12 -1 -3
BITMAP
10
10
10
10
10
F0
30
30
30
30
30
30
ENDCHAR
STARTCHAR uni2528
ENCODING 9512
SWIDTH 437 0
DWIDTH 7 0
BBX 4 12 -1 -3
BITMAP
30
30
30
30
30
F0
30
30
30
30
30
30
ENDCHAR
STARTCHAR uni2529
ENCODING 9513
SWIDTH 437 0
DWIDTH 7 0
BBX 4 12 -1 -3
BITMAP
30
30
30
30
F0
F0
10
10
10
10
10
10
ENDCHAR
STARTCHAR uni252A
ENCODING 9514
SWIDTH 437 0
DWIDTH 7 0
BBX 4 12 -1 -3
BITMAP
10
10
10
10
F0
F0
30
30
30
30
30
30
ENDCHAR
STARTCHAR uni252B
ENCODING 9515
SWIDTH 437 0
DWIDTH 7 0
BBX 4 12 -1 -3
BITMAP
30
30
30
30
F0
F0
30
30
30
30
30
30
ENDCHAR
STARTCHAR SF060000
ENCODING 9516
SWIDTH 437 0
DWIDTH 7 0
BBX 7 7 -1 -3
BITMAP
FE
10
10
10
10
10
10
ENDCHAR
STARTCHAR uni252D
ENCODING 9517
SWIDTH 437 0
DWIDTH 7 0
BBX 7 8 -1 -3
BITMAP
F0
FE
10
10
10
10
10
10
ENDCHAR
STARTCHAR uni252E
ENCODING 9518
SWIDTH 437 0
DWIDTH 7 0
BBX 7 8 -1 -3
BITMAP
1E
FE
10
10
10
10
10
10
ENDCHAR
STARTCHAR uni252F
ENCODING 9519
SWIDTH 437 0
DWIDTH 7 0
BBX 7 8 -1 -3
BITMAP
FE
FE
10
10
10
10
10
10
ENDCHAR
STARTCHAR uni2530
ENCODING 9520
SWIDTH 437 0
DWIDTH 7 0
BBX 7 7 -1 -3
BITMAP
FE
30
30
30
30
30
30
ENDCHAR
STARTCHAR uni2531
ENCODING 9521
SWIDTH 437 0
DWIDTH 7 0
BBX 7 8 -1 -3
BITMAP
F0
FE
30
30
30
30
30
30
ENDCHAR
STARTCHAR uni2532
ENCODING 9522
SWIDTH 437 0
DWIDTH 7 0
BBX 7 8 -1 -3
BITMAP
3E
FE
30
30
30
30
30
30
ENDCHAR
STARTCHAR uni2533
ENCODING 9523
SWIDTH 437 0
DWIDTH 7 0
BBX 7 8 -1 -3
BITMAP
FE
FE
30
30
30
30
30
30
ENDCHAR
STARTCHAR SF070000
ENCODING 9524
SWIDTH 437 0
DWIDTH 7 0
BBX 7 6 -1 3
BITMAP
10
10
10
10
10
FE
ENDCHAR
STARTCHAR uni2535
ENCODING 9525
SWIDTH 437 0
DWIDTH 7 0
BBX 7 6 -1 3
BITMAP
10
10
10
10
F0
FE
ENDCHAR
STARTCHAR uni2536
ENCODING 9526
SWIDTH 437 0
DWIDTH 7 0
BBX 7 6 -1 3
BITMAP
10
10
10
10
1E
FE
ENDCHAR
STARTCHAR uni2537
ENCODING 9527
SWIDTH 437 0
DWIDTH 7 0
BBX 7 6 -1 3
BITMAP
10
10
10
10
FE
FE
ENDCHAR
STARTCHAR uni2538
ENCODING 9528
SWIDTH 437 0
DWIDTH 7 0
BBX 7 6 -1 3
BITMAP
30
30
30
30
30
FE
ENDCHAR
STARTCHAR uni2539
ENCODING 9529
SWIDTH 437 0
DWIDTH 7 0
BBX 7 6 -1 3
BITMAP
30
30
30
30
F0
FE
ENDCHAR
STARTCHAR uni253A
ENCODING 9530
SWIDTH 437 0
DWIDTH 7 0
BBX 7 6 -1 3
BITMAP
30
30
30
30
3E
FE
ENDCHAR
STARTCHAR uni253B
ENCODING 9531
SWIDTH 437 0
DWIDTH 7 0
BBX 7 6 -1 3
BITMAP
30
30
30
30
FE
FE
ENDCHAR
STARTCHAR SF050000
ENCODING 9532
SWIDTH 437 0
DWIDTH 7 0
BBX 7 12 -1 -3
BITMAP
10
10
10
10
10
FE
10
10
10
10
10
10
ENDCHAR
STARTCHAR uni253D
ENCODING 9533
SWIDTH 437 0
DWIDTH 7 0
BBX 7 12 -1 -3
BITMAP
10
10
10
10
F0
FE
10
10
10
10
10
10
ENDCHAR
STARTCHAR uni253E
ENCODING 9534
SWIDTH 437 0
DWIDTH 7 0
BBX 7 12 -1 -3
BITMAP
10
10
10
10
1E
FE
10
10
10
10
10
10
ENDCHAR
STARTCHAR uni253F
ENCODING 9535
SWIDTH 437 0
DWIDTH 7 0
BBX 7 12 -1 -3
BITMAP
10
10
10
10
FE
FE
10
10
10
10
10
10
ENDCHAR
STARTCHAR uni2540
ENCODING 9536
SWIDTH 437 0
DWIDTH 7 0
BBX 7 12 -1 -3
BITMAP
30
30
30
30
30
FE
10
10
10
10
10
10
ENDCHAR
STARTCHAR uni2541
ENCODING 9537
SWIDTH 437 0
DWIDTH 7 0
BBX 7 12 -1 -3
BITMAP
10
10
10
10
10
FE
30
30
30
30
30
30
ENDCHAR
STARTCHAR uni2542
ENCODING 9538
SWIDTH 437 0
DWIDTH 7 0
BBX 7 12 -1 -3
BITMAP
30
30
30
30
30
FE
30
30
30
30
30
30
ENDCHAR
STARTCHAR uni2543
ENCODING 9539
SWIDTH 437 0
DWIDTH 7 0
BBX 7 12 -1 -3
BITMAP
30
30
30
30
F0
FE
10
10
10
10
10
10
ENDCHAR
STARTCHAR uni2544
ENCODING 9540
SWIDTH 437 0
DWIDTH 7 0
BBX 7 12 -1 -3
BITMAP
30
30
30
30
3E
FE
10
10
10
10
10
10
ENDCHAR
STARTCHAR uni2545
ENCODING 9541
SWIDTH 437 0
DWIDTH 7 0
BBX 7 12 -1 -3
BITMAP
10
10
10
10
F0
FE
30
30
30
30
30
30
ENDCHAR
STARTCHAR uni2546
ENCODING 9542
SWIDTH 437 0
DWIDTH 7 0
BBX 7 12 -1 -3
BITMAP
10
10
10
10
3E
FE
30
30
30
30
30
30
ENDCHAR
STARTCHAR uni2547
ENCODING 9543
SWIDTH 437 0
DWIDTH 7 0
BBX 7 12 -1 -3
BITMAP
30
30
30
30
FE
FE
10
10
10
10
10
10
ENDCHAR
STARTCHAR uni2548
ENCODING 9544
SWIDTH 437 0
DWIDTH 7 0
BBX 7 12 -1 -3
BITMAP
10
10
10
10
FE
FE
30
30
30
30
30
30
ENDCHAR
STARTCHAR uni2549
ENCODING 9545
SWIDTH 437 0
DWIDTH 7 0
BBX 7 12 -1 -3
BITMAP
30
30
30
30
F0
FE
30
30
30
30
30
30
ENDCHAR
STARTCHAR uni254A
ENCODING 9546
SWIDTH 437 0
DWIDTH 7 0
BBX 7 12 -1 -3
BITMAP
30
30
30
30
3E
FE
30
30
30
30
30
30
ENDCHAR
STARTCHAR uni254B
ENCODING 9547
SWIDTH 437 0
DWIDTH 7 0
BBX 7 12 -1 -3
BITMAP
30
30
30
30
FE
FE
30
30
30
30
30
30
ENDCHAR
STARTCHAR uni254C
ENCODING 9548
SWIDTH 437 0
DWIDTH 7 0
BBX 6 1 0 3
BITMAP
DC
ENDCHAR
STARTCHAR uni254D
ENCODING 9549
SWIDTH 437 0
DWIDTH 7 0
BBX 6 2 0 3
BITMAP
DC
DC
ENDCHAR
STARTCHAR uni254E
ENCODING 9550
SWIDTH 437 0
DWIDTH 7 0
BBX 1 12 2 -3
BITMAP
80
80
80
80
80
00
80
80
80
80
80
80
ENDCHAR
STARTCHAR uni254F
ENCODING 9551
SWIDTH 437 0
DWIDTH 7 0
BBX 2 12 1 -3
BITMAP
C0
C0
C0
C0
C0
00
C0
C0
C0
C0
C0
C0
ENDCHAR
STARTCHAR SF430000
ENCODING 9552
SWIDTH 437 0
DWIDTH 7 0
BBX 6 3 0 2
BITMAP
FC
00
FC
ENDCHAR
STARTCHAR SF240000
ENCODING 9553
SWIDTH 437 0
DWIDTH 7 0
BBX 4 12 0 -3
BITMAP
50
50
50
50
50
50
50
50
50
50
50
50
ENDCHAR
STARTCHAR SF510000
ENCODING 9554
SWIDTH 437 0
DWIDTH 7 0
BBX 4 8 2 -3
BITMAP
F0
80
F0
80
80
80
80
80
ENDCHAR
STARTCHAR SF520000
ENCODING 9555
SWIDTH 437 0
DWIDTH 7 0
BBX 6 7 0 -3
BITMAP
7C
50
50
50
50
50
50
ENDCHAR
STARTCHAR SF390000
ENCODING 9556
SWIDTH 437 0
DWIDTH 7 0
BBX 5 8 1 -3
BITMAP
F8
80
B8
A0
A0
A0
A0
A0
ENDCHAR
STARTCHAR SF220000
ENCODING 9557
SWIDTH 437 0
DWIDTH 7 0
BBX 4 8 -1 -3
BITMAP
F0
10
F0
10
10
10
10
10
ENDCHAR
STARTCHAR SF210000
ENCODING 9558
SWIDTH 437 0
DWIDTH 7 0
BBX 5 7 -1 -3
BITMAP
F8
28
28
28
28
28
28
ENDCHAR
STARTCHAR SF250000
ENCODING 9559
SWIDTH 437 0
DWIDTH 7 0
BBX 5 8 -1 -3
BITMAP
F8
08
E8
28
28
28
28
28
ENDCHAR
STARTCHAR SF500000
ENCODING 9560
SWIDTH 437 0
DWIDTH 7 0
BBX 4 7 2 2
BITMAP
80
80
80
80
F0
80
F0
ENDCHAR
STARTCHAR SF490000
ENCODING 9561
SWIDTH 437 0
DWIDTH 7 0
BBX 5 6 1 3
BITMAP
A0
A0
A0
A0
A0
F8
ENDCHAR
STARTCHAR SF380000
ENCODING 9562
SWIDTH 437 0
DWIDTH 7 0
BBX 5 7 1 2
BITMAP
A0
A0
A0
A0
B8
80
F8
ENDCHAR
STARTCHAR SF280000
ENCODING 9563
SWIDTH 437 0
DWIDTH 7 0
BBX 4 7 -1 2
BITMAP
10
10
10
10
F0
10
F0
ENDCHAR
STARTCHAR SF270000
ENCODING 9564
SWIDTH 437 0
DWIDTH 7 0
BBX 5 6 -1 3
BITMAP
28
28
28
28
28
F8
ENDCHAR
STARTCHAR SF260000
ENCODING 9565
SWIDTH 437 0
DWIDTH 7 0
BBX 5 7 -1 2
BITMAP
28
28
28
28
E8
08
F8
ENDCHAR
STARTCHAR SF360000
ENCODING 9566
SWIDTH 437 0
DWIDTH 7 0
BBX 4 12 2 -3
BITMAP
80
80
80
80
F0
80
F0
80
80
80
80
80
ENDCHAR
STARTCHAR SF370000
ENCODING 9567
SWIDTH 437 0
DWIDTH 7 0
BBX 5 12 1 -3
BITMAP
A0
A0
A0
A0
A0
B8
A0
A0
A0
A0
A0
A0
ENDCHAR
STARTCHAR SF420000
ENCODING 9568
SWIDTH 437 0
DWIDTH 7 0
BBX 6 12 0 -3
BITMAP
50
50
50
50
5C
40
5C
50
50
50
50
50
ENDCHAR
STARTCHAR SF190000
ENCODING 9569
SWIDTH 437 0
DWIDTH 7 0
BBX 4 12 -1 -3
BITMAP
10
10
10
10
F0
10
F0
10
10
10
10
10
ENDCHAR
STARTCHAR SF200000
ENCODING 9570
SWIDTH 437 0
DWIDTH 7 0
BBX 5 12 -1 -3
BITMAP
28
28
28
28
28
E8
28
28
28
28
28
28
ENDCHAR
STARTCHAR SF230000
ENCODING 9571
SWIDTH 437 0
DWIDTH 7 0
BBX 5 12 -1 -3
BITMAP
28
28
28
28
E8
08
E8
28
28
28
28
28
ENDCHAR
STARTCHAR SF470000
ENCODING 9572
SWIDTH 437 0
DWIDTH 7 0
BBX 7 8 -1 -3
BITMAP
FE
00
FE
10
10
10
10
10
ENDCHAR
STARTCHAR SF480000
ENCODING 9573
SWIDTH 437 0
DWIDTH 7 0
BBX 7 7 -1 -3
BITMAP
FE
28
28
28
28
28
28
ENDCHAR
STARTCHAR SF410000
ENCODING 9574
SWIDTH 437 0
DWIDTH 7 0
BBX 7 8 -1 -3
BITMAP
FE
00
EE
28
28
28
28
28
ENDCHAR
STARTCHAR SF450000
ENCODING 9575
SWIDTH 437 0
DWIDTH 7 0
BBX 7 7 -1 2
BITMAP
10
10
10
10
FE
00
FE
ENDCHAR
STARTCHAR SF460000
ENCODING 9576
SWIDTH 437 0
DWIDTH 7 0
BBX 7 6 -1 3
BITMAP
28
28
28
28
28
FE
ENDCHAR
STARTCHAR SF400000
ENCODING 9577
SWIDTH 437 0
DWIDTH 7 0
BBX 7 7 -1 2
BITMAP
28
28
28
28
EE
00
FE
ENDCHAR
STARTCHAR SF540000
ENCODING 9578
SWIDTH 437 0
DWIDTH 7 0
BBX 7 12 -1 -3
BITMAP
10
10
10
10
FE
00
FE
10
10
10
10
10
ENDCHAR
STARTCHAR SF530000
ENCODING 9579
SWIDTH 437 0
DWIDTH 7 0
BBX 7 12 -1 -3
BITMAP
28
28
28
28
28
EE
28
28
28
28
28
28
ENDCHAR
STARTCHAR SF440000
ENCODING 9580
SWIDTH 437 0
DWIDTH 7 0
BBX 7 12 -1 -3
BITMAP
28
28
28
28
EE
00
EE
28
28
28
28
28
ENDCHAR
STARTCHAR uni256D
ENCODING 9581
SWIDTH 437 0
DWIDTH 7 0
BBX 4 7 2 -3
BITMAP
70
C0
80
80
80
80
80
ENDCHAR
STARTCHAR uni256E
ENCODING 9582
SWIDTH 437 0
DWIDTH 7 0
BBX 4 7 -1 -3
BITMAP
E0
30
10
10
10
10
10
ENDCHAR
STARTCHAR uni256F
ENCODING 9583
SWIDTH 437 0
DWIDTH 7 0
BBX 4 6 -1 3
BITMAP
10
10
10
10
30
E0
ENDCHAR
STARTCHAR uni2570
ENCODING 9584
SWIDTH 437 0
DWIDTH 7 0
BBX 4 6 2 3
BITMAP
80
80
80
80
C0
70
ENDCHAR
STARTCHAR uni2571
ENCODING 9585
SWIDTH 437 0
DWIDTH 7 0
BBX 7 7 -1 0
BITMAP
02
04
08
10
20
40
80
ENDCHAR
STARTCHAR uni2572
ENCODING 9586
SWIDTH 437 0
DWIDTH 7 0
BBX 7 7 -1 0
BITMAP
02
04
08
10
20
40
80
ENDCHAR
STARTCHAR uni2573
ENCODING 9587
SWIDTH 437 0
DWIDTH 7 0
BBX 7 7 -1 0
BITMAP
82
44
28
10
28
44
82
ENDCHAR
STARTCHAR uni2574
ENCODING 9588
SWIDTH 437 0
DWIDTH 7 0
BBX 3 1 0 3
BITMAP
E0
ENDCHAR
STARTCHAR uni2575
ENCODING 9589
SWIDTH 437 0
DWIDTH 7 0
BBX 1 6 2 3
BITMAP
80
80
80
80
80
80
ENDCHAR
STARTCHAR uni2576
ENCODING 9590
SWIDTH 437 0
DWIDTH 7 0
BBX 4 1 2 3
BITMAP
F0
ENDCHAR
STARTCHAR uni2577
ENCODING 9591
SWIDTH 437 0
DWIDTH 7 0
BBX 1 7 2 -3
BITMAP
80
80
80
80
80
80
80
ENDCHAR
STARTCHAR uni2578
ENCODING 9592
SWIDTH 437 0
DWIDTH 7 0
BBX 3 2 0 3
BITMAP
E0
E0
ENDCHAR
STARTCHAR uni2579
ENCODING 9593
SWIDTH 437 0
DWIDTH 7 0
BBX 2 6 1 3
BITMAP
C0
C0
C0
C0
C0
C0
ENDCHAR
STARTCHAR uni257A
ENCODING 9594
SWIDTH 437 0
DWIDTH 7 0
BBX 4 2 2 3
BITMAP
F0
F0
ENDCHAR
STARTCHAR uni257B
ENCODING 9595
SWIDTH 437 0
DWIDTH 7 0
BBX 2 7 1 -3
BITMAP
C0
C0
C0
C0
C0
C0
C0
ENDCHAR
STARTCHAR uni257C
ENCODING 9596
SWIDTH 437 0
DWIDTH 7 0
BBX 6 2 0 3
BITMAP
1C
FC
ENDCHAR
STARTCHAR uni257D
ENCODING 9597
SWIDTH 437 0
DWIDTH 7 0
BBX 2 12 1 -3
BITMAP
40
40
40
40
40
40
C0
C0
C0
C0
C0
C0
ENDCHAR
STARTCHAR uni257E
ENCODING 9598
SWIDTH 437 0
DWIDTH 7 0
BBX 6 2 0 3
BITMAP
E0
FC
ENDCHAR
STARTCHAR uni257F
ENCODING 9599
SWIDTH 437 0
DWIDTH 7 0
BBX 2 12 1 -3
BITMAP
C0
C0
C0
C0
C0
C0
40
40
40
40
40
40
ENDCHAR
STARTCHAR uni2581
ENCODING 9601
SWIDTH 437 0
DWIDTH 7 0
BBX 4 1 0 0
BITMAP
F0
ENDCHAR
STARTCHAR uni2582
ENCODING 9602
SWIDTH 437 0
DWIDTH 7 0
BBX 4 2 0 0
BITMAP
F0
F0
ENDCHAR
STARTCHAR uni2583
ENCODING 9603
SWIDTH 437 0
DWIDTH 7 0
BBX 4 3 0 0
BITMAP
F0
F0
F0
ENDCHAR
STARTCHAR dnblock
ENCODING 9604
SWIDTH 437 0
DWIDTH 7 0
BBX 4 4 0 0
BITMAP
F0
F0
F0
F0
ENDCHAR
STARTCHAR uni2585
ENCODING 9605
SWIDTH 437 0
DWIDTH 7 0
BBX 4 5 0 0
BITMAP
F0
F0
F0
F0
F0
ENDCHAR
STARTCHAR uni2586
ENCODING 9606
SWIDTH 437 0
DWIDTH 7 0
BBX 4 6 0 0
BITMAP
F0
F0
F0
F0
F0
F0
ENDCHAR
STARTCHAR uni2587
ENCODING 9607
SWIDTH 437 0
DWIDTH 7 0
BBX 4 7 0 0
BITMAP
F0
F0
F0
F0
F0
F0
F0
ENDCHAR
STARTCHAR block
ENCODING 9608
SWIDTH 437 0
DWIDTH 7 0
BBX 4 8 0 0
BITMAP
F0
F0
F0
F0
F0
F0
F0
F0
ENDCHAR
STARTCHAR uni2589
ENCODING 9609
SWIDTH 437 0
DWIDTH 7 0
BBX 4 8 0 0
BITMAP
F0
F0
F0
F0
F0
F0
F0
F0
ENDCHAR
STARTCHAR uni258A
ENCODING 9610
SWIDTH 437 0
DWIDTH 7 0
BBX 3 8 0 0
BITMAP
E0
E0
E0
E0
E0
E0
E0
E0
ENDCHAR
STARTCHAR uni258B
ENCODING 9611
SWIDTH 437 0
DWIDTH 7 0
BBX 3 8 0 0
BITMAP
E0
E0
E0
E0
E0
E0
E0
E0
ENDCHAR
STARTCHAR lfblock
ENCODING 9612
SWIDTH 437 0
DWIDTH 7 0
BBX 2 8 0 0
BITMAP
C0
C0
C0
C0
C0
C0
C0
C0
ENDCHAR
STARTCHAR uni258D
ENCODING 9613
SWIDTH 437 0
DWIDTH 7 0
BBX 2 8 0 0
BITMAP
C0
C0
C0
C0
C0
C0
C0
C0
ENDCHAR
STARTCHAR uni258E
ENCODING 9614
SWIDTH 437 0
DWIDTH 7 0
BBX 1 8 0 0
BITMAP
80
80
80
80
80
80
80
80
ENDCHAR
STARTCHAR uni258F
ENCODING 9615
SWIDTH 437 0
DWIDTH 7 0
BBX 1 8 0 0
BITMAP
80
80
80
80
80
80
80
80
ENDCHAR
STARTCHAR rtblock
ENCODING 9616
SWIDTH 437 0
DWIDTH 7 0
BBX 4 8 0 0
BITMAP
30
30
30
30
30
30
30
30
ENDCHAR
STARTCHAR shadelight
ENCODING 9617
SWIDTH 437 0
DWIDTH 7 0
BBX 5 10 0 -2
BITMAP
48
00
00
90
00
00
48
00
00
90
ENDCHAR
STARTCHAR shademedium
ENCODING 9618
SWIDTH 437 0
DWIDTH 7 0
BBX 6 11 0 -2
BITMAP
54
00
A8
00
54
00
A8
00
54
00
A8
ENDCHAR
STARTCHAR shadedark
ENCODING 9619
SWIDTH 437 0
DWIDTH 7 0
BBX 6 11 0 -2
BITMAP
A8
54
A8
54
A8
54
A8
54
A8
54
A8
ENDCHAR
STARTCHAR uni2594
ENCODING 9620
SWIDTH 437 0
DWIDTH 7 0
BBX 4 1 0 7
BITMAP
F0
ENDCHAR
STARTCHAR uni2595
ENCODING 9621
SWIDTH 437 0
DWIDTH 7 0
BBX 4 8 0 0
BITMAP
10
10
10
10
10
10
10
10
ENDCHAR
STARTCHAR uni2596
ENCODING 9622
SWIDTH 437 0
DWIDTH 7 0
BBX 2 4 0 0
BITMAP
C0
C0
C0
C0
ENDCHAR
STARTCHAR uni2597
ENCODING 9623
SWIDTH 437 0
DWIDTH 7 0
BBX 4 4 0 0
BITMAP
30
30
30
30
ENDCHAR
STARTCHAR uni2598
ENCODING 9624
SWIDTH 437 0
DWIDTH 7 0
BBX 2 4 0 4
BITMAP
C0
C0
C0
C0
ENDCHAR
STARTCHAR uni2599
ENCODING 9625
SWIDTH 437 0
DWIDTH 7 0
BBX 4 8 0 0
BITMAP
C0
C0
C0
C0
F0
F0
F0
F0
ENDCHAR
STARTCHAR uni259A
ENCODING 9626
SWIDTH 437 0
DWIDTH 7 0
BBX 4 8 0 0
BITMAP
C0
C0
C0
C0
30
30
30
30
ENDCHAR
STARTCHAR uni259B
ENCODING 9627
SWIDTH 437 0
DWIDTH 7 0
BBX 4 8 0 0
BITMAP
F0
F0
F0
F0
F0
C0
C0
C0
ENDCHAR
STARTCHAR uni259C
ENCODING 9628
SWIDTH 437 0
DWIDTH 7 0
BBX 4 8 0 0
BITMAP
F0
F0
F0
F0
30
30
30
30
ENDCHAR
STARTCHAR uni259D
ENCODING 9629
SWIDTH 437 0
DWIDTH 7 0
BBX 2 4 2 4
BITMAP
C0
C0
C0
C0
ENDCHAR
STARTCHAR uni259E
ENCODING 9630
SWIDTH 437 0
DWIDTH 7 0
BBX 4 8 0 0
BITMAP
30
30
30
30
C0
C0
C0
C0
ENDCHAR
STARTCHAR uni259F
ENCODING 9631
SWIDTH 437 0
DWIDTH 7 0
BBX 4 8 0 0
BITMAP
30
30
30
30
F0
F0
F0
F0
ENDCHAR
STARTCHAR filledbox
ENCODING 9632
SWIDTH 437 0
DWIDTH 7 0
BBX 4 4 0 1
BITMAP
F0
F0
F0
F0
ENDCHAR
STARTCHAR whitesquare
ENCODING 9633
SWIDTH 437 0
DWIDTH 7 0
BBX 4 4 0 1
BITMAP
F0
90
90
F0
ENDCHAR
STARTCHAR uni25A2
ENCODING 9634
SWIDTH 437 0
DWIDTH 7 0
BBX 4 4 0 1
BITMAP
60
90
90
60
ENDCHAR
STARTCHAR H18543
ENCODING 9642
SWIDTH 437 0
DWIDTH 7 0
BBX 2 2 1 2
BITMAP
C0
C0
ENDCHAR
STARTCHAR triagup
ENCODING 9650
SWIDTH 437 0
DWIDTH 7 0
BBX 5 3 0 1
BITMAP
20
50
F8
ENDCHAR
STARTCHAR whiteuppointingtriangle
ENCODING 9651
SWIDTH 437 0
DWIDTH 7 0
BBX 5 3 0 1
BITMAP
20
70
F8
ENDCHAR
STARTCHAR blackuppointingsmalltriangle
ENCODING 9652
SWIDTH 437 0
DWIDTH 7 0
BBX 3 2 1 1
BITMAP
40
E0
ENDCHAR
STARTCHAR uni2600
ENCODING 9728
SWIDTH 437 0
DWIDTH 7 0
BBX 7 7 -1 -1
BITMAP
10
54
38
FE
38
54
10
ENDCHAR
STARTCHAR uni2601
ENCODING 9729
SWIDTH 437 0
DWIDTH 7 0
BBX 6 3 0 2
BITMAP
10
78
FC
ENDCHAR
STARTCHAR uni2602
ENCODING 9730
SWIDTH 437 0
DWIDTH 7 0
BBX 5 8 0 -1
BITMAP
70
F8
F8
20
20
A0
A0
40
ENDCHAR
STARTCHAR heartsuitwhite
ENCODING 9825
SWIDTH 437 0
DWIDTH 7 0
BBX 5 5 0 0
BITMAP
50
A8
88
50
20
ENDCHAR
STARTCHAR heartsuitblack
ENCODING 9829
SWIDTH 437 0
DWIDTH 7 0
BBX 5 5 0 0
BITMAP
50
F8
F8
70
20
ENDCHAR
STARTCHAR checkmark
ENCODING 10003
SWIDTH 437 0
DWIDTH 7 0
BBX 5 6 -1 0
BITMAP
08
08
10
90
60
20
ENDCHAR
STARTCHAR uni2714
ENCODING 10004
SWIDTH 437 0
DWIDTH 7 0
BBX 5 6 -1 0
BITMAP
08
18
90
F0
60
20
ENDCHAR
STARTCHAR uni272E
ENCODING 10030
SWIDTH 437 0
DWIDTH 7 0
BBX 7 6 -1 0
BITMAP
10
10
FE
38
38
44
ENDCHAR
STARTCHAR uni2744
ENCODING 10052
SWIDTH 437 0
DWIDTH 7 0
BBX 7 7 -1 0
BITMAP
92
6C
54
BA
54
6C
92
ENDCHAR
STARTCHAR uni27C2
ENCODING 10178
SWIDTH 437 0
DWIDTH 7 0
BBX 3 5 0 0
BITMAP
40
40
40
40
E0
ENDCHAR
STARTCHAR uni27C3
ENCODING 10179
SWIDTH 437 0
DWIDTH 7 0
BBX 4 5 0 0
BITMAP
70
80
A0
80
70
ENDCHAR
STARTCHAR uni27C4
ENCODING 10180
SWIDTH 437 0
DWIDTH 7 0
BBX 4 5 0 0
BITMAP
E0
10
50
10
E0
ENDCHAR
STARTCHAR uni27D6
ENCODING 10198
SWIDTH 437 0
DWIDTH 7 0
BBX 5 6 0 0
BITMAP
20
20
20
20
20
F8
ENDCHAR
STARTCHAR uni27D7
ENCODING 10199
SWIDTH 437 0
DWIDTH 7 0
BBX 5 6 0 0
BITMAP
F8
20
20
20
20
20
ENDCHAR
STARTCHAR uni27DC
ENCODING 10204
SWIDTH 437 0
DWIDTH 7 0
BBX 6 3 0 1
BITMAP
40
BC
40
ENDCHAR
STARTCHAR uni27DD
ENCODING 10205
SWIDTH 437 0
DWIDTH 7 0
BBX 6 3 0 1
BITMAP
80
FC
80
ENDCHAR
STARTCHAR uni27DE
ENCODING 10206
SWIDTH 437 0
DWIDTH 7 0
BBX 5 3 -1 1
BITMAP
08
F8
08
ENDCHAR
STARTCHAR uni2800
ENCODING 10240
SWIDTH 437 0
DWIDTH 7 0
BBX 0 0 0 0
BITMAP
ENDCHAR
STARTCHAR uni2801
ENCODING 10241
SWIDTH 437 0
DWIDTH 7 0
BBX 1 1 0 4
BITMAP
80
ENDCHAR
STARTCHAR uni2802
ENCODING 10242
SWIDTH 437 0
DWIDTH 7 0
BBX 1 1 0 2
BITMAP
80
ENDCHAR
STARTCHAR uni2803
ENCODING 10243
SWIDTH 437 0
DWIDTH 7 0
BBX 1 3 0 2
BITMAP
80
00
80
ENDCHAR
STARTCHAR uni2804
ENCODING 10244
SWIDTH 437 0
DWIDTH 7 0
BBX 1 1 0 0
BITMAP
80
ENDCHAR
STARTCHAR uni2805
ENCODING 10245
SWIDTH 437 0
DWIDTH 7 0
BBX 3 5 0 0
BITMAP
80
00
00
00
80
ENDCHAR
STARTCHAR uni2806
ENCODING 10246
SWIDTH 437 0
DWIDTH 7 0
BBX 1 3 0 0
BITMAP
80
00
80
ENDCHAR
STARTCHAR uni2807
ENCODING 10247
SWIDTH 437 0
DWIDTH 7 0
BBX 3 5 0 0
BITMAP
80
00
80
00
80
ENDCHAR
STARTCHAR uni2808
ENCODING 10248
SWIDTH 437 0
DWIDTH 7 0
BBX 1 1 2 4
BITMAP
80
ENDCHAR
STARTCHAR uni2809
ENCODING 10249
SWIDTH 437 0
DWIDTH 7 0
BBX 3 1 0 4
BITMAP
A0
ENDCHAR
STARTCHAR uni280A
ENCODING 10250
SWIDTH 437 0
DWIDTH 7 0
BBX 3 3 0 2
BITMAP
20
00
80
ENDCHAR
STARTCHAR uni280B
ENCODING 10251
SWIDTH 437 0
DWIDTH 7 0
BBX 3 3 0 2
BITMAP
A0
00
80
ENDCHAR
STARTCHAR uni280C
ENCODING 10252
SWIDTH 437 0
DWIDTH 7 0
BBX 3 5 0 0
BITMAP
20
00
00
00
80
ENDCHAR
STARTCHAR uni280D
ENCODING 10253
SWIDTH 437 0
DWIDTH 7 0
BBX 3 5 0 0
BITMAP
A0
00
00
00
80
ENDCHAR
STARTCHAR uni280E
ENCODING 10254
SWIDTH 437 0
DWIDTH 7 0
BBX 3 5 0 0
BITMAP
20
00
80
00
80
ENDCHAR
STARTCHAR uni280F
ENCODING 10255
SWIDTH 437 0
DWIDTH 7 0
BBX 3 5 0 0
BITMAP
A0
00
80
00
80
ENDCHAR
STARTCHAR uni2810
ENCODING 10256
SWIDTH 437 0
DWIDTH 7 0
BBX 1 1 2 2
BITMAP
80
ENDCHAR
STARTCHAR uni2811
ENCODING 10257
SWIDTH 437 0
DWIDTH 7 0
BBX 3 3 0 2
BITMAP
80
00
20
ENDCHAR
STARTCHAR uni2812
ENCODING 10258
SWIDTH 437 0
DWIDTH 7 0
BBX 3 1 0 2
BITMAP
A0
ENDCHAR
STARTCHAR uni2813
ENCODING 10259
SWIDTH 437 0
DWIDTH 7 0
BBX 3 3 0 2
BITMAP
80
00
A0
ENDCHAR
STARTCHAR uni2814
ENCODING 10260
SWIDTH 437 0
DWIDTH 7 0
BBX 3 3 0 0
BITMAP
20
00
80
ENDCHAR
STARTCHAR uni2815
ENCODING 10261
SWIDTH 437 0
DWIDTH 7 0
BBX 3 5 0 0
BITMAP
80
00
20
00
80
ENDCHAR
STARTCHAR uni2816
ENCODING 10262
SWIDTH 437 0
DWIDTH 7 0
BBX 3 3 0 0
BITMAP
A0
00
80
ENDCHAR
STARTCHAR uni2817
ENCODING 10263
SWIDTH 437 0
DWIDTH 7 0
BBX 3 5 0 0
BITMAP
80
00
A0
00
80
ENDCHAR
STARTCHAR uni2818
ENCODING 10264
SWIDTH 437 0
DWIDTH 7 0
BBX 1 3 2 2
BITMAP
80
00
80
ENDCHAR
STARTCHAR uni2819
ENCODING 10265
SWIDTH 437 0
DWIDTH 7 0
BBX 3 3 0 2
BITMAP
A0
00
20
ENDCHAR
STARTCHAR uni281A
ENCODING 10266
SWIDTH 437 0
DWIDTH 7 0
BBX 3 3 0 2
BITMAP
20
00
A0
ENDCHAR
STARTCHAR uni281B
ENCODING 10267
SWIDTH 437 0
DWIDTH 7 0
BBX 3 3 0 2
BITMAP
A0
00
A0
ENDCHAR
STARTCHAR uni281C
ENCODING 10268
SWIDTH 437 0
DWIDTH 7 0
BBX 3 5 0 0
BITMAP
20
00
20
00
80
ENDCHAR
STARTCHAR uni281D
ENCODING 10269
SWIDTH 437 0
DWIDTH 7 0
BBX 3 5 0 0
BITMAP
A0
00
20
00
80
ENDCHAR
STARTCHAR uni281E
ENCODING 10270
SWIDTH 437 0
DWIDTH 7 0
BBX 3 5 0 0
BITMAP
20
00
A0
00
80
ENDCHAR
STARTCHAR uni281F
ENCODING 10271
SWIDTH 437 0
DWIDTH 7 0
BBX 3 5 0 0
BITMAP
A0
00
A0
00
80
ENDCHAR
STARTCHAR uni2820
ENCODING 10272
SWIDTH 437 0
DWIDTH 7 0
BBX 1 1 2 0
BITMAP
80
ENDCHAR
STARTCHAR uni2821
ENCODING 10273
SWIDTH 437 0
DWIDTH 7 0
BBX 3 5 0 0
BITMAP
80
00
00
00
20
ENDCHAR
STARTCHAR uni2822
ENCODING 10274
SWIDTH 437 0
DWIDTH 7 0
BBX 3 3 0 0
BITMAP
80
00
20
ENDCHAR
STARTCHAR uni2823
ENCODING 10275
SWIDTH 437 0
DWIDTH 7 0
BBX 3 5 0 0
BITMAP
80
00
80
00
20
ENDCHAR
STARTCHAR uni2824
ENCODING 10276
SWIDTH 437 0
DWIDTH 7 0
BBX 3 1 0 0
BITMAP
A0
ENDCHAR
STARTCHAR uni2825
ENCODING 10277
SWIDTH 437 0
DWIDTH 7 0
BBX 3 5 0 0
BITMAP
80
00
00
00
A0
ENDCHAR
STARTCHAR uni2826
ENCODING 10278
SWIDTH 437 0
DWIDTH 7 0
BBX 3 3 0 0
BITMAP
80
00
A0
ENDCHAR
STARTCHAR uni2827
ENCODING 10279
SWIDTH 437 0
DWIDTH 7 0
BBX 3 5 0 0
BITMAP
80
00
80
00
A0
ENDCHAR
STARTCHAR uni2828
ENCODING 10280
SWIDTH 437 0
DWIDTH 7 0
BBX 3 5 0 0
BITMAP
20
00
00
00
20
ENDCHAR
STARTCHAR uni2829
ENCODING 10281
SWIDTH 437 0
DWIDTH 7 0
BBX 3 5 0 0
BITMAP
A0
00
00
00
20
ENDCHAR
STARTCHAR uni282A
ENCODING 10282
SWIDTH 437 0
DWIDTH 7 0
BBX 3 5 0 0
BITMAP
20
00
80
00
20
ENDCHAR
STARTCHAR uni282B
ENCODING 10283
SWIDTH 437 0
DWIDTH 7 0
BBX 3 5 0 0
BITMAP
A0
00
80
00
20
ENDCHAR
STARTCHAR uni282C
ENCODING 10284
SWIDTH 437 0
DWIDTH 7 0
BBX 3 5 0 0
BITMAP
20
00
00
00
A0
ENDCHAR
STARTCHAR uni282D
ENCODING 10285
SWIDTH 437 0
DWIDTH 7 0
BBX 3 5 0 0
BITMAP
A0
00
00
00
A0
ENDCHAR
STARTCHAR uni282E
ENCODING 10286
SWIDTH 437 0
DWIDTH 7 0
BBX 3 5 0 0
BITMAP
20
00
80
00
A0
ENDCHAR
STARTCHAR uni282F
ENCODING 10287
SWIDTH 437 0
DWIDTH 7 0
BBX 3 5 0 0
BITMAP
A0
00
80
00
A0
ENDCHAR
STARTCHAR uni2830
ENCODING 10288
SWIDTH 437 0
DWIDTH 7 0
BBX 1 3 2 0
BITMAP
80
00
80
ENDCHAR
STARTCHAR uni2831
ENCODING 10289
SWIDTH 437 0
DWIDTH 7 0
BBX 3 5 0 0
BITMAP
80
00
20
00
20
ENDCHAR
STARTCHAR uni2832
ENCODING 10290
SWIDTH 437 0
DWIDTH 7 0
BBX 3 3 0 0
BITMAP
A0
00
20
ENDCHAR
STARTCHAR uni2833
ENCODING 10291
SWIDTH 437 0
DWIDTH 7 0
BBX 3 5 0 0
BITMAP
80
00
A0
00
20
ENDCHAR
STARTCHAR uni2834
ENCODING 10292
SWIDTH 437 0
DWIDTH 7 0
BBX 3 3 0 0
BITMAP
20
00
A0
ENDCHAR
STARTCHAR uni2835
ENCODING 10293
SWIDTH 437 0
DWIDTH 7 0
BBX 3 5 0 0
BITMAP
80
00
20
00
A0
ENDCHAR
STARTCHAR uni2836
ENCODING 10294
SWIDTH 437 0
DWIDTH 7 0
BBX 3 3 0 0
BITMAP
A0
00
A0
ENDCHAR
STARTCHAR uni2837
ENCODING 10295
SWIDTH 437 0
DWIDTH 7 0
BBX 3 5 0 0
BITMAP
80
00
A0
00
A0
ENDCHAR
STARTCHAR uni2838
ENCODING 10296
SWIDTH 437 0
DWIDTH 7 0
BBX 3 5 0 0
BITMAP
20
00
20
00
20
ENDCHAR
STARTCHAR uni2839
ENCODING 10297
SWIDTH 437 0
DWIDTH 7 0
BBX 3 5 0 0
BITMAP
A0
00
20
00
20
ENDCHAR
STARTCHAR uni283A
ENCODING 10298
SWIDTH 437 0
DWIDTH 7 0
BBX 3 5 0 0
BITMAP
20
00
A0
00
20
ENDCHAR
STARTCHAR uni283B
ENCODING 10299
SWIDTH 437 0
DWIDTH 7 0
BBX 3 5 0 0
BITMAP
A0
00
A0
00
20
ENDCHAR
STARTCHAR uni283C
ENCODING 10300
SWIDTH 437 0
DWIDTH 7 0
BBX 3 5 0 0
BITMAP
20
00
20
00
A0
ENDCHAR
STARTCHAR uni283D
ENCODING 10301
SWIDTH 437 0
DWIDTH 7 0
BBX 3 5 0 0
BITMAP
A0
00
20
00
A0
ENDCHAR
STARTCHAR uni283E
ENCODING 10302
SWIDTH 437 0
DWIDTH 7 0
BBX 3 5 0 0
BITMAP
20
00
A0
00
A0
ENDCHAR
STARTCHAR uni283F
ENCODING 10303
SWIDTH 437 0
DWIDTH 7 0
BBX 3 5 0 0
BITMAP
A0
00
A0
00
A0
ENDCHAR
STARTCHAR uni2840
ENCODING 10304
SWIDTH 437 0
DWIDTH 7 0
BBX 1 1 0 -2
BITMAP
80
ENDCHAR
STARTCHAR uni2841
ENCODING 10305
SWIDTH 437 0
DWIDTH 7 0
BBX 3 7 0 -2
BITMAP
80
00
00
00
00
00
80
ENDCHAR
STARTCHAR uni2842
ENCODING 10306
SWIDTH 437 0
DWIDTH 7 0
BBX 1 5 0 -2
BITMAP
80
00
00
00
80
ENDCHAR
STARTCHAR uni2843
ENCODING 10307
SWIDTH 437 0
DWIDTH 7 0
BBX 3 7 0 -2
BITMAP
80
00
80
00
00
00
80
ENDCHAR
STARTCHAR uni2844
ENCODING 10308
SWIDTH 437 0
DWIDTH 7 0
BBX 1 3 0 -2
BITMAP
80
00
80
ENDCHAR
STARTCHAR uni2845
ENCODING 10309
SWIDTH 437 0
DWIDTH 7 0
BBX 3 7 0 -2
BITMAP
80
00
00
00
80
00
80
ENDCHAR
STARTCHAR uni2846
ENCODING 10310
SWIDTH 437 0
DWIDTH 7 0
BBX 1 5 0 -2
BITMAP
80
00
80
00
80
ENDCHAR
STARTCHAR uni2847
ENCODING 10311
SWIDTH 437 0
DWIDTH 7 0
BBX 3 7 0 -2
BITMAP
80
00
80
00
80
00
80
ENDCHAR
STARTCHAR uni2848
ENCODING 10312
SWIDTH 437 0
DWIDTH 7 0
BBX 3 7 0 -2
BITMAP
20
00
00
00
00
00
80
ENDCHAR
STARTCHAR uni2849
ENCODING 10313
SWIDTH 437 0
DWIDTH 7 0
BBX 3 7 0 -2
BITMAP
A0
00
00
00
00
00
80
ENDCHAR
STARTCHAR uni284A
ENCODING 10314
SWIDTH 437 0
DWIDTH 7 0
BBX 3 7 0 -2
BITMAP
20
00
80
00
00
00
80
ENDCHAR
STARTCHAR uni284B
ENCODING 10315
SWIDTH 437 0
DWIDTH 7 0
BBX 3 7 0 -2
BITMAP
A0
00
80
00
00
00
80
ENDCHAR
STARTCHAR uni284C
ENCODING 10316
SWIDTH 437 0
DWIDTH 7 0
BBX 3 7 0 -2
BITMAP
20
00
00
00
80
00
80
ENDCHAR
STARTCHAR uni284D
ENCODING 10317
SWIDTH 437 0
DWIDTH 7 0
BBX 3 7 0 -2
BITMAP
A0
00
00
00
80
00
80
ENDCHAR
STARTCHAR uni284E
ENCODING 10318
SWIDTH 437 0
DWIDTH 7 0
BBX 3 7 0 -2
BITMAP
20
00
80
00
80
00
80
ENDCHAR
STARTCHAR uni284F
ENCODING 10319
SWIDTH 437 0
DWIDTH 7 0
BBX 3 7 0 -2
BITMAP
A0
00
80
00
80
00
80
ENDCHAR
STARTCHAR uni2850
ENCODING 10320
SWIDTH 437 0
DWIDTH 7 0
BBX 3 5 0 -2
BITMAP
20
00
00
00
80
ENDCHAR
STARTCHAR uni2851
ENCODING 10321
SWIDTH 437 0
DWIDTH 7 0
BBX 3 7 0 -2
BITMAP
80
00
20
00
00
00
80
ENDCHAR
STARTCHAR uni2852
ENCODING 10322
SWIDTH 437 0
DWIDTH 7 0
BBX 3 5 0 -2
BITMAP
A0
00
00
00
80
ENDCHAR
STARTCHAR uni2853
ENCODING 10323
SWIDTH 437 0
DWIDTH 7 0
BBX 3 7 0 -2
BITMAP
80
00
A0
00
00
00
80
ENDCHAR
STARTCHAR uni2854
ENCODING 10324
SWIDTH 437 0
DWIDTH 7 0
BBX 3 5 0 -2
BITMAP
20
00
80
00
80
ENDCHAR
STARTCHAR uni2855
ENCODING 10325
SWIDTH 437 0
DWIDTH 7 0
BBX 3 7 0 -2
BITMAP
80
00
20
00
80
00
80
ENDCHAR
STARTCHAR uni2856
ENCODING 10326
SWIDTH 437 0
DWIDTH 7 0
BBX 3 5 0 -2
BITMAP
A0
00
80
00
80
ENDCHAR
STARTCHAR uni2857
ENCODING 10327
SWIDTH 437 0
DWIDTH 7 0
BBX 3 7 0 -2
BITMAP
80
00
A0
00
80
00
80
ENDCHAR
STARTCHAR uni2858
ENCODING 10328
SWIDTH 437 0
DWIDTH 7 0
BBX 3 7 0 -2
BITMAP
20
00
20
00
00
00
80
ENDCHAR
STARTCHAR uni2859
ENCODING 10329
SWIDTH 437 0
DWIDTH 7 0
BBX 3 7 0 -2
BITMAP
A0
00
20
00
00
00
80
ENDCHAR
STARTCHAR uni285A
ENCODING 10330
SWIDTH 437 0
DWIDTH 7 0
BBX 3 7 0 -2
BITMAP
20
00
A0
00
00
00
80
ENDCHAR
STARTCHAR uni285B
ENCODING 10331
SWIDTH 437 0
DWIDTH 7 0
BBX 3 7 0 -2
BITMAP
A0
00
A0
00
00
00
80
ENDCHAR
STARTCHAR uni285C
ENCODING 10332
SWIDTH 437 0
DWIDTH 7 0
BBX 3 7 0 -2
BITMAP
20
00
20
00
80
00
80
ENDCHAR
STARTCHAR uni285D
ENCODING 10333
SWIDTH 437 0
DWIDTH 7 0
BBX 3 7 0 -2
BITMAP
A0
00
20
00
80
00
80
ENDCHAR
STARTCHAR uni285E
ENCODING 10334
SWIDTH 437 0
DWIDTH 7 0
BBX 3 7 0 -2
BITMAP
20
00
A0
00
80
00
80
ENDCHAR
STARTCHAR uni285F
ENCODING 10335
SWIDTH 437 0
DWIDTH 7 0
BBX 3 7 0 -2
BITMAP
A0
00
A0
00
80
00
80
ENDCHAR
STARTCHAR uni2860
ENCODING 10336
SWIDTH 437 0
DWIDTH 7 0
BBX 3 3 0 -2
BITMAP
20
00
80
ENDCHAR
STARTCHAR uni2861
ENCODING 10337
SWIDTH 437 0
DWIDTH 7 0
BBX 3 7 0 -2
BITMAP
80
00
00
00
20
00
80
ENDCHAR
STARTCHAR uni2862
ENCODING 10338
SWIDTH 437 0
DWIDTH 7 0
BBX 3 5 0 -2
BITMAP
80
00
20
00
80
ENDCHAR
STARTCHAR uni2863
ENCODING 10339
SWIDTH 437 0
DWIDTH 7 0
BBX 3 7 0 -2
BITMAP
80
00
80
00
20
00
80
ENDCHAR
STARTCHAR uni2864
ENCODING 10340
SWIDTH 437 0
DWIDTH 7 0
BBX 3 3 0 -2
BITMAP
A0
00
80
ENDCHAR
STARTCHAR uni2865
ENCODING 10341
SWIDTH 437 0
DWIDTH 7 0
BBX 3 7 0 -2
BITMAP
80
00
00
00
A0
00
80
ENDCHAR
STARTCHAR uni2866
ENCODING 10342
SWIDTH 437 0
DWIDTH 7 0
BBX 3 5 0 -2
BITMAP
80
00
A0
00
80
ENDCHAR
STARTCHAR uni2867
ENCODING 10343
SWIDTH 437 0
DWIDTH 7 0
BBX 3 7 0 -2
BITMAP
80
00
80
00
A0
00
80
ENDCHAR
STARTCHAR uni2868
ENCODING 10344
SWIDTH 437 0
DWIDTH 7 0
BBX 3 7 0 -2
BITMAP
20
00
00
00
20
00
80
ENDCHAR
STARTCHAR uni2869
ENCODING 10345
SWIDTH 437 0
DWIDTH 7 0
BBX 3 7 0 -2
BITMAP
A0
00
00
00
20
00
80
ENDCHAR
STARTCHAR uni286A
ENCODING 10346
SWIDTH 437 0
DWIDTH 7 0
BBX 3 7 0 -2
BITMAP
20
00
80
00
20
00
80
ENDCHAR
STARTCHAR uni286B
ENCODING 10347
SWIDTH 437 0
DWIDTH 7 0
BBX 3 7 0 -2
BITMAP
A0
00
80
00
20
00
80
ENDCHAR
STARTCHAR uni286C
ENCODING 10348
SWIDTH 437 0
DWIDTH 7 0
BBX 3 7 0 -2
BITMAP
20
00
00
00
A0
00
80
ENDCHAR
STARTCHAR uni286D
ENCODING 10349
SWIDTH 437 0
DWIDTH 7 0
BBX 3 7 0 -2
BITMAP
A0
00
00
00
A0
00
80
ENDCHAR
STARTCHAR uni286E
ENCODING 10350
SWIDTH 437 0
DWIDTH 7 0
BBX 3 7 0 -2
BITMAP
20
00
80
00
A0
00
80
ENDCHAR
STARTCHAR uni286F
ENCODING 10351
SWIDTH 437 0
DWIDTH 7 0
BBX 3 7 0 -2
BITMAP
A0
00
80
00
A0
00
80
ENDCHAR
STARTCHAR uni2870
ENCODING 10352
SWIDTH 437 0
DWIDTH 7 0
BBX 3 5 0 -2
BITMAP
20
00
20
00
80
ENDCHAR
STARTCHAR uni2871
ENCODING 10353
SWIDTH 437 0
DWIDTH 7 0
BBX 3 7 0 -2
BITMAP
80
00
20
00
20
00
80
ENDCHAR
STARTCHAR uni2872
ENCODING 10354
SWIDTH 437 0
DWIDTH 7 0
BBX 3 5 0 -2
BITMAP
A0
00
20
00
80
ENDCHAR
STARTCHAR uni2873
ENCODING 10355
SWIDTH 437 0
DWIDTH 7 0
BBX 3 7 0 -2
BITMAP
80
00
A0
00
20
00
80
ENDCHAR
STARTCHAR uni2874
ENCODING 10356
SWIDTH 437 0
DWIDTH 7 0
BBX 3 5 0 -2
BITMAP
20
00
A0
00
80
ENDCHAR
STARTCHAR uni2875
ENCODING 10357
SWIDTH 437 0
DWIDTH 7 0
BBX 3 7 0 -2
BITMAP
80
00
20
00
A0
00
80
ENDCHAR
STARTCHAR uni2876
ENCODING 10358
SWIDTH 437 0
DWIDTH 7 0
BBX 3 5 0 -2
BITMAP
A0
00
A0
00
80
ENDCHAR
STARTCHAR uni2877
ENCODING 10359
SWIDTH 437 0
DWIDTH 7 0
BBX 3 7 0 -2
BITMAP
80
00
A0
00
A0
00
80
ENDCHAR
STARTCHAR uni2878
ENCODING 10360
SWIDTH 437 0
DWIDTH 7 0
BBX 3 7 0 -2
BITMAP
20
00
20
00
20
00
80
ENDCHAR
STARTCHAR uni2879
ENCODING 10361
SWIDTH 437 0
DWIDTH 7 0
BBX 3 7 0 -2
BITMAP
A0
00
20
00
20
00
80
ENDCHAR
STARTCHAR uni287A
ENCODING 10362
SWIDTH 437 0
DWIDTH 7 0
BBX 3 7 0 -2
BITMAP
20
00
A0
00
20
00
80
ENDCHAR
STARTCHAR uni287B
ENCODING 10363
SWIDTH 437 0
DWIDTH 7 0
BBX 3 7 0 -2
BITMAP
A0
00
A0
00
20
00
80
ENDCHAR
STARTCHAR uni287C
ENCODING 10364
SWIDTH 437 0
DWIDTH 7 0
BBX 3 7 0 -2
BITMAP
20
00
20
00
A0
00
80
ENDCHAR
STARTCHAR uni287D
ENCODING 10365
SWIDTH 437 0
DWIDTH 7 0
BBX 3 7 0 -2
BITMAP
A0
00
20
00
A0
00
80
ENDCHAR
STARTCHAR uni287E
ENCODING 10366
SWIDTH 437 0
DWIDTH 7 0
BBX 3 7 0 -2
BITMAP
20
00
A0
00
A0
00
80
ENDCHAR
STARTCHAR uni287F
ENCODING 10367
SWIDTH 437 0
DWIDTH 7 0
BBX 3 7 0 -2
BITMAP
A0
00
A0
00
A0
00
80
ENDCHAR
STARTCHAR uni2880
ENCODING 10368
SWIDTH 437 0
DWIDTH 7 0
BBX 1 1 2 -2
BITMAP
80
ENDCHAR
STARTCHAR uni2881
ENCODING 10369
SWIDTH 437 0
DWIDTH 7 0
BBX 3 7 0 -2
BITMAP
80
00
00
00
00
00
20
ENDCHAR
STARTCHAR uni2882
ENCODING 10370
SWIDTH 437 0
DWIDTH 7 0
BBX 3 5 0 -2
BITMAP
80
00
00
00
20
ENDCHAR
STARTCHAR uni2883
ENCODING 10371
SWIDTH 437 0
DWIDTH 7 0
BBX 3 7 0 -2
BITMAP
80
00
80
00
00
00
20
ENDCHAR
STARTCHAR uni2884
ENCODING 10372
SWIDTH 437 0
DWIDTH 7 0
BBX 3 3 0 -2
BITMAP
80
00
20
ENDCHAR
STARTCHAR uni2885
ENCODING 10373
SWIDTH 437 0
DWIDTH 7 0
BBX 3 7 0 -2
BITMAP
80
00
00
00
80
00
20
ENDCHAR
STARTCHAR uni2886
ENCODING 10374
SWIDTH 437 0
DWIDTH 7 0
BBX 3 5 0 -2
BITMAP
80
00
80
00
20
ENDCHAR
STARTCHAR uni2887
ENCODING 10375
SWIDTH 437 0
DWIDTH 7 0
BBX 3 7 0 -2
BITMAP
80
00
80
00
80
00
20
ENDCHAR
STARTCHAR uni2888
ENCODING 10376
SWIDTH 437 0
DWIDTH 7 0
BBX 3 7 0 -2
BITMAP
20
00
00
00
00
00
20
ENDCHAR
STARTCHAR uni2889
ENCODING 10377
SWIDTH 437 0
DWIDTH 7 0
BBX 3 7 0 -2
BITMAP
A0
00
00
00
00
00
20
ENDCHAR
STARTCHAR uni288A
ENCODING 10378
SWIDTH 437 0
DWIDTH 7 0
BBX 3 7 0 -2
BITMAP
20
00
80
00
00
00
20
ENDCHAR
STARTCHAR uni288B
ENCODING 10379
SWIDTH 437 0
DWIDTH 7 0
BBX 3 7 0 -2
BITMAP
A0
00
80
00
00
00
20
ENDCHAR
STARTCHAR uni288C
ENCODING 10380
SWIDTH 437 0
DWIDTH 7 0
BBX 3 7 0 -2
BITMAP
20
00
00
00
80
00
20
ENDCHAR
STARTCHAR uni288D
ENCODING 10381
SWIDTH 437 0
DWIDTH 7 0
BBX 3 7 0 -2
BITMAP
A0
00
00
00
80
00
20
ENDCHAR
STARTCHAR uni288E
ENCODING 10382
SWIDTH 437 0
DWIDTH 7 0
BBX 3 7 0 -2
BITMAP
20
00
80
00
80
00
20
ENDCHAR
STARTCHAR uni288F
ENCODING 10383
SWIDTH 437 0
DWIDTH 7 0
BBX 3 7 0 -2
BITMAP
A0
00
80
00
80
00
20
ENDCHAR
STARTCHAR uni2890
ENCODING 10384
SWIDTH 437 0
DWIDTH 7 0
BBX 1 5 2 -2
BITMAP
80
00
00
00
80
ENDCHAR
STARTCHAR uni2891
ENCODING 10385
SWIDTH 437 0
DWIDTH 7 0
BBX 3 7 0 -2
BITMAP
80
00
20
00
00
00
20
ENDCHAR
STARTCHAR uni2892
ENCODING 10386
SWIDTH 437 0
DWIDTH 7 0
BBX 3 5 0 -2
BITMAP
A0
00
00
00
20
ENDCHAR
STARTCHAR uni2893
ENCODING 10387
SWIDTH 437 0
DWIDTH 7 0
BBX 3 7 0 -2
BITMAP
80
00
A0
00
00
00
20
ENDCHAR
STARTCHAR uni2894
ENCODING 10388
SWIDTH 437 0
DWIDTH 7 0
BBX 3 5 0 -2
BITMAP
20
00
80
00
20
ENDCHAR
STARTCHAR uni2895
ENCODING 10389
SWIDTH 437 0
DWIDTH 7 0
BBX 3 7 0 -2
BITMAP
80
00
20
00
80
00
20
ENDCHAR
STARTCHAR uni2896
ENCODING 10390
SWIDTH 437 0
DWIDTH 7 0
BBX 3 5 0 -2
BITMAP
A0
00
80
00
20
ENDCHAR
STARTCHAR uni2897
ENCODING 10391
SWIDTH 437 0
DWIDTH 7 0
BBX 3 7 0 -2
BITMAP
80
00
A0
00
80
00
20
ENDCHAR
STARTCHAR uni2898
ENCODING 10392
SWIDTH 437 0
DWIDTH 7 0
BBX 3 7 0 -2
BITMAP
20
00
20
00
00
00
20
ENDCHAR
STARTCHAR uni2899
ENCODING 10393
SWIDTH 437 0
DWIDTH 7 0
BBX 3 7 0 -2
BITMAP
A0
00
20
00
00
00
20
ENDCHAR
STARTCHAR uni289A
ENCODING 10394
SWIDTH 437 0
DWIDTH 7 0
BBX 3 7 0 -2
BITMAP
20
00
A0
00
00
00
20
ENDCHAR
STARTCHAR uni289B
ENCODING 10395
SWIDTH 437 0
DWIDTH 7 0
BBX 3 7 0 -2
BITMAP
A0
00
A0
00
00
00
20
ENDCHAR
STARTCHAR uni289C
ENCODING 10396
SWIDTH 437 0
DWIDTH 7 0
BBX 3 7 0 -2
BITMAP
20
00
20
00
80
00
20
ENDCHAR
STARTCHAR uni289D
ENCODING 10397
SWIDTH 437 0
DWIDTH 7 0
BBX 3 7 0 -2
BITMAP
A0
00
20
00
80
00
20
ENDCHAR
STARTCHAR uni289E
ENCODING 10398
SWIDTH 437 0
DWIDTH 7 0
BBX 3 7 0 -2
BITMAP
20
00
A0
00
80
00
20
ENDCHAR
STARTCHAR uni289F
ENCODING 10399
SWIDTH 437 0
DWIDTH 7 0
BBX 3 7 0 -2
BITMAP
A0
00
A0
00
80
00
20
ENDCHAR
STARTCHAR uni28A0
ENCODING 10400
SWIDTH 437 0
DWIDTH 7 0
BBX 1 3 2 -2
BITMAP
80
00
80
ENDCHAR
STARTCHAR uni28A1
ENCODING 10401
SWIDTH 437 0
DWIDTH 7 0
BBX 3 7 0 -2
BITMAP
80
00
00
00
20
00
20
ENDCHAR
STARTCHAR uni28A2
ENCODING 10402
SWIDTH 437 0
DWIDTH 7 0
BBX 3 5 0 -2
BITMAP
80
00
20
00
20
ENDCHAR
STARTCHAR uni28A3
ENCODING 10403
SWIDTH 437 0
DWIDTH 7 0
BBX 3 7 0 -2
BITMAP
80
00
80
00
20
00
20
ENDCHAR
STARTCHAR uni28A4
ENCODING 10404
SWIDTH 437 0
DWIDTH 7 0
BBX 3 3 0 -2
BITMAP
A0
00
20
ENDCHAR
STARTCHAR uni28A5
ENCODING 10405
SWIDTH 437 0
DWIDTH 7 0
BBX 3 7 0 -2
BITMAP
80
00
00
00
A0
00
20
ENDCHAR
STARTCHAR uni28A6
ENCODING 10406
SWIDTH 437 0
DWIDTH 7 0
BBX 3 5 0 -2
BITMAP
80
00
A0
00
20
ENDCHAR
STARTCHAR uni28A7
ENCODING 10407
SWIDTH 437 0
DWIDTH 7 0
BBX 3 7 0 -2
BITMAP
80
00
80
00
A0
00
20
ENDCHAR
STARTCHAR uni28A8
ENCODING 10408
SWIDTH 437 0
DWIDTH 7 0
BBX 3 7 0 -2
BITMAP
20
00
00
00
20
00
20
ENDCHAR
STARTCHAR uni28A9
ENCODING 10409
SWIDTH 437 0
DWIDTH 7 0
BBX 3 7 0 -2
BITMAP
A0
00
00
00
20
00
20
ENDCHAR
STARTCHAR uni28AA
ENCODING 10410
SWIDTH 437 0
DWIDTH 7 0
BBX 3 7 0 -2
BITMAP
20
00
80
00
20
00
20
ENDCHAR
STARTCHAR uni28AB
ENCODING 10411
SWIDTH 437 0
DWIDTH 7 0
BBX 3 7 0 -2
BITMAP
A0
00
80
00
20
00
20
ENDCHAR
STARTCHAR uni28AC
ENCODING 10412
SWIDTH 437 0
DWIDTH 7 0
BBX 3 7 0 -2
BITMAP
20
00
00
00
A0
00
20
ENDCHAR
STARTCHAR uni28AD
ENCODING 10413
SWIDTH 437 0
DWIDTH 7 0
BBX 3 7 0 -2
BITMAP
A0
00
00
00
A0
00
20
ENDCHAR
STARTCHAR uni28AE
ENCODING 10414
SWIDTH 437 0
DWIDTH 7 0
BBX 3 7 0 -2
BITMAP
20
00
80
00
A0
00
20
ENDCHAR
STARTCHAR uni28AF
ENCODING 10415
SWIDTH 437 0
DWIDTH 7 0
BBX 3 7 0 -2
BITMAP
A0
00
80
00
A0
00
20
ENDCHAR
STARTCHAR uni28B0
ENCODING 10416
SWIDTH 437 0
DWIDTH 7 0
BBX 1 5 2 -2
BITMAP
80
00
80
00
80
ENDCHAR
STARTCHAR uni28B1
ENCODING 10417
SWIDTH 437 0
DWIDTH 7 0
BBX 3 7 0 -2
BITMAP
80
00
20
00
20
00
20
ENDCHAR
STARTCHAR uni28B2
ENCODING 10418
SWIDTH 437 0
DWIDTH 7 0
BBX 3 5 0 -2
BITMAP
A0
00
20
00
20
ENDCHAR
STARTCHAR uni28B3
ENCODING 10419
SWIDTH 437 0
DWIDTH 7 0
BBX 3 7 0 -2
BITMAP
80
00
A0
00
20
00
20
ENDCHAR
STARTCHAR uni28B4
ENCODING 10420
SWIDTH 437 0
DWIDTH 7 0
BBX 3 5 0 -2
BITMAP
20
00
A0
00
20
ENDCHAR
STARTCHAR uni28B5
ENCODING 10421
SWIDTH 437 0
DWIDTH 7 0
BBX 3 7 0 -2
BITMAP
80
00
20
00
A0
00
20
ENDCHAR
STARTCHAR uni28B6
ENCODING 10422
SWIDTH 437 0
DWIDTH 7 0
BBX 3 5 0 -2
BITMAP
A0
00
A0
00
20
ENDCHAR
STARTCHAR uni28B7
ENCODING 10423
SWIDTH 437 0
DWIDTH 7 0
BBX 3 7 0 -2
BITMAP
80
00
A0
00
A0
00
20
ENDCHAR
STARTCHAR uni28B8
ENCODING 10424
SWIDTH 437 0
DWIDTH 7 0
BBX 3 7 0 -2
BITMAP
20
00
20
00
20
00
20
ENDCHAR
STARTCHAR uni28B9
ENCODING 10425
SWIDTH 437 0
DWIDTH 7 0
BBX 3 7 0 -2
BITMAP
A0
00
20
00
20
00
20
ENDCHAR
STARTCHAR uni28BA
ENCODING 10426
SWIDTH 437 0
DWIDTH 7 0
BBX 3 7 0 -2
BITMAP
20
00
A0
00
20
00
20
ENDCHAR
STARTCHAR uni28BB
ENCODING 10427
SWIDTH 437 0
DWIDTH 7 0
BBX 3 7 0 -2
BITMAP
A0
00
A0
00
20
00
20
ENDCHAR
STARTCHAR uni28BC
ENCODING 10428
SWIDTH 437 0
DWIDTH 7 0
BBX 3 7 0 -2
BITMAP
20
00
20
00
A0
00
20
ENDCHAR
STARTCHAR uni28BD
ENCODING 10429
SWIDTH 437 0
DWIDTH 7 0
BBX 3 7 0 -2
BITMAP
A0
00
20
00
A0
00
20
ENDCHAR
STARTCHAR uni28BE
ENCODING 10430
SWIDTH 437 0
DWIDTH 7 0
BBX 3 7 0 -2
BITMAP
20
00
A0
00
A0
00
20
ENDCHAR
STARTCHAR uni28BF
ENCODING 10431
SWIDTH 437 0
DWIDTH 7 0
BBX 3 7 0 -2
BITMAP
A0
00
A0
00
A0
00
20
ENDCHAR
STARTCHAR uni28C0
ENCODING 10432
SWIDTH 437 0
DWIDTH 7 0
BBX 3 1 0 -2
BITMAP
A0
ENDCHAR
STARTCHAR uni28C1
ENCODING 10433
SWIDTH 437 0
DWIDTH 7 0
BBX 3 7 0 -2
BITMAP
80
00
00
00
00
00
A0
ENDCHAR
STARTCHAR uni28C2
ENCODING 10434
SWIDTH 437 0
DWIDTH 7 0
BBX 3 5 0 -2
BITMAP
80
00
00
00
A0
ENDCHAR
STARTCHAR uni28C3
ENCODING 10435
SWIDTH 437 0
DWIDTH 7 0
BBX 3 7 0 -2
BITMAP
80
00
80
00
00
00
A0
ENDCHAR
STARTCHAR uni28C4
ENCODING 10436
SWIDTH 437 0
DWIDTH 7 0
BBX 3 3 0 -2
BITMAP
80
00
A0
ENDCHAR
STARTCHAR uni28C5
ENCODING 10437
SWIDTH 437 0
DWIDTH 7 0
BBX 3 7 0 -2
BITMAP
80
00
00
00
80
00
A0
ENDCHAR
STARTCHAR uni28C6
ENCODING 10438
SWIDTH 437 0
DWIDTH 7 0
BBX 3 5 0 -2
BITMAP
80
00
80
00
A0
ENDCHAR
STARTCHAR uni28C7
ENCODING 10439
SWIDTH 437 0
DWIDTH 7 0
BBX 3 7 0 -2
BITMAP
80
00
80
00
80
00
A0
ENDCHAR
STARTCHAR uni28C8
ENCODING 10440
SWIDTH 437 0
DWIDTH 7 0
BBX 3 7 0 -2
BITMAP
20
00
00
00
00
00
A0
ENDCHAR
STARTCHAR uni28C9
ENCODING 10441
SWIDTH 437 0
DWIDTH 7 0
BBX 3 7 0 -2
BITMAP
A0
00
00
00
00
00
A0
ENDCHAR
STARTCHAR uni28CA
ENCODING 10442
SWIDTH 437 0
DWIDTH 7 0
BBX 3 7 0 -2
BITMAP
20
00
80
00
00
00
A0
ENDCHAR
STARTCHAR uni28CB
ENCODING 10443
SWIDTH 437 0
DWIDTH 7 0
BBX 3 7 0 -2
BITMAP
A0
00
80
00
00
00
A0
ENDCHAR
STARTCHAR uni28CC
ENCODING 10444
SWIDTH 437 0
DWIDTH 7 0
BBX 3 7 0 -2
BITMAP
20
00
00
00
80
00
A0
ENDCHAR
STARTCHAR uni28CD
ENCODING 10445
SWIDTH 437 0
DWIDTH 7 0
BBX 3 7 0 -2
BITMAP
A0
00
00
00
80
00
A0
ENDCHAR
STARTCHAR uni28CE
ENCODING 10446
SWIDTH 437 0
DWIDTH 7 0
BBX 3 7 0 -2
BITMAP
20
00
80
00
80
00
A0
ENDCHAR
STARTCHAR uni28CF
ENCODING 10447
SWIDTH 437 0
DWIDTH 7 0
BBX 3 7 0 -2
BITMAP
A0
00
80
00
80
00
A0
ENDCHAR
STARTCHAR uni28D0
ENCODING 10448
SWIDTH 437 0
DWIDTH 7 0
BBX 3 5 0 -2
BITMAP
20
00
00
00
A0
ENDCHAR
STARTCHAR uni28D1
ENCODING 10449
SWIDTH 437 0
DWIDTH 7 0
BBX 3 7 0 -2
BITMAP
80
00
20
00
00
00
A0
ENDCHAR
STARTCHAR uni28D2
ENCODING 10450
SWIDTH 437 0
DWIDTH 7 0
BBX 3 5 0 -2
BITMAP
A0
00
00
00
A0
ENDCHAR
STARTCHAR uni28D3
ENCODING 10451
SWIDTH 437 0
DWIDTH 7 0
BBX 3 7 0 -2
BITMAP
80
00
A0
00
00
00
A0
ENDCHAR
STARTCHAR uni28D4
ENCODING 10452
SWIDTH 437 0
DWIDTH 7 0
BBX 3 5 0 -2
BITMAP
20
00
80
00
A0
ENDCHAR
STARTCHAR uni28D5
ENCODING 10453
SWIDTH 437 0
DWIDTH 7 0
BBX 3 7 0 -2
BITMAP
80
00
20
00
80
00
A0
ENDCHAR
STARTCHAR uni28D6
ENCODING 10454
SWIDTH 437 0
DWIDTH 7 0
BBX 3 5 0 -2
BITMAP
A0
00
80
00
A0
ENDCHAR
STARTCHAR uni28D7
ENCODING 10455
SWIDTH 437 0
DWIDTH 7 0
BBX 3 7 0 -2
BITMAP
80
00
A0
00
80
00
A0
ENDCHAR
STARTCHAR uni28D8
ENCODING 10456
SWIDTH 437 0
DWIDTH 7 0
BBX 3 7 0 -2
BITMAP
20
00
20
00
00
00
A0
ENDCHAR
STARTCHAR uni28D9
ENCODING 10457
SWIDTH 437 0
DWIDTH 7 0
BBX 3 7 0 -2
BITMAP
A0
00
20
00
00
00
A0
ENDCHAR
STARTCHAR uni28DA
ENCODING 10458
SWIDTH 437 0
DWIDTH 7 0
BBX 3 7 0 -2
BITMAP
20
00
A0
00
00
00
A0
ENDCHAR
STARTCHAR uni28DB
ENCODING 10459
SWIDTH 437 0
DWIDTH 7 0
BBX 3 7 0 -2
BITMAP
A0
00
A0
00
00
00
A0
ENDCHAR
STARTCHAR uni28DC
ENCODING 10460
SWIDTH 437 0
DWIDTH 7 0
BBX 3 7 0 -2
BITMAP
20
00
20
00
80
00
A0
ENDCHAR
STARTCHAR uni28DD
ENCODING 10461
SWIDTH 437 0
DWIDTH 7 0
BBX 3 7 0 -2
BITMAP
A0
00
20
00
80
00
A0
ENDCHAR
STARTCHAR uni28DE
ENCODING 10462
SWIDTH 437 0
DWIDTH 7 0
BBX 3 7 0 -2
BITMAP
20
00
A0
00
80
00
A0
ENDCHAR
STARTCHAR uni28DF
ENCODING 10463
SWIDTH 437 0
DWIDTH 7 0
BBX 3 7 0 -2
BITMAP
A0
00
A0
00
80
00
A0
ENDCHAR
STARTCHAR uni28E0
ENCODING 10464
SWIDTH 437 0
DWIDTH 7 0
BBX 3 3 0 -2
BITMAP
20
00
A0
ENDCHAR
STARTCHAR uni28E1
ENCODING 10465
SWIDTH 437 0
DWIDTH 7 0
BBX 3 7 0 -2
BITMAP
80
00
00
00
20
00
A0
ENDCHAR
STARTCHAR uni28E2
ENCODING 10466
SWIDTH 437 0
DWIDTH 7 0
BBX 3 5 0 -2
BITMAP
80
00
20
00
A0
ENDCHAR
STARTCHAR uni28E3
ENCODING 10467
SWIDTH 437 0
DWIDTH 7 0
BBX 3 7 0 -2
BITMAP
80
00
80
00
20
00
A0
ENDCHAR
STARTCHAR uni28E4
ENCODING 10468
SWIDTH 437 0
DWIDTH 7 0
BBX 3 3 0 -2
BITMAP
A0
00
A0
ENDCHAR
STARTCHAR uni28E5
ENCODING 10469
SWIDTH 437 0
DWIDTH 7 0
BBX 3 7 0 -2
BITMAP
80
00
00
00
A0
00
A0
ENDCHAR
STARTCHAR uni28E6
ENCODING 10470
SWIDTH 437 0
DWIDTH 7 0
BBX 3 5 0 -2
BITMAP
80
00
A0
00
A0
ENDCHAR
STARTCHAR uni28E7
ENCODING 10471
SWIDTH 437 0
DWIDTH 7 0
BBX 3 7 0 -2
BITMAP
80
00
80
00
A0
00
A0
ENDCHAR
STARTCHAR uni28E8
ENCODING 10472
SWIDTH 437 0
DWIDTH 7 0
BBX 3 7 0 -2
BITMAP
20
00
00
00
20
00
A0
ENDCHAR
STARTCHAR uni28E9
ENCODING 10473
SWIDTH 437 0
DWIDTH 7 0
BBX 3 7 0 -2
BITMAP
A0
00
00
00
20
00
A0
ENDCHAR
STARTCHAR uni28EA
ENCODING 10474
SWIDTH 437 0
DWIDTH 7 0
BBX 3 7 0 -2
BITMAP
20
00
80
00
20
00
A0
ENDCHAR
STARTCHAR uni28EB
ENCODING 10475
SWIDTH 437 0
DWIDTH 7 0
BBX 3 7 0 -2
BITMAP
A0
00
80
00
20
00
A0
ENDCHAR
STARTCHAR uni28EC
ENCODING 10476
SWIDTH 437 0
DWIDTH 7 0
BBX 3 7 0 -2
BITMAP
20
00
00
00
A0
00
A0
ENDCHAR
STARTCHAR uni28ED
ENCODING 10477
SWIDTH 437 0
DWIDTH 7 0
BBX 3 7 0 -2
BITMAP
A0
00
00
00
A0
00
A0
ENDCHAR
STARTCHAR uni28EE
ENCODING 10478
SWIDTH 437 0
DWIDTH 7 0
BBX 3 7 0 -2
BITMAP
20
00
80
00
A0
00
A0
ENDCHAR
STARTCHAR uni28EF
ENCODING 10479
SWIDTH 437 0
DWIDTH 7 0
BBX 3 7 0 -2
BITMAP
A0
00
80
00
A0
00
A0
ENDCHAR
STARTCHAR uni28F0
ENCODING 10480
SWIDTH 437 0
DWIDTH 7 0
BBX 3 5 0 -2
BITMAP
20
00
20
00
A0
ENDCHAR
STARTCHAR uni28F1
ENCODING 10481
SWIDTH 437 0
DWIDTH 7 0
BBX 3 7 0 -2
BITMAP
80
00
20
00
20
00
A0
ENDCHAR
STARTCHAR uni28F2
ENCODING 10482
SWIDTH 437 0
DWIDTH 7 0
BBX 3 5 0 -2
BITMAP
A0
00
20
00
A0
ENDCHAR
STARTCHAR uni28F3
ENCODING 10483
SWIDTH 437 0
DWIDTH 7 0
BBX 3 7 0 -2
BITMAP
80
00
A0
00
20
00
A0
ENDCHAR
STARTCHAR uni28F4
ENCODING 10484
SWIDTH 437 0
DWIDTH 7 0
BBX 3 5 0 -2
BITMAP
20
00
A0
00
A0
ENDCHAR
STARTCHAR uni28F5
ENCODING 10485
SWIDTH 437 0
DWIDTH 7 0
BBX 3 7 0 -2
BITMAP
80
00
20
00
A0
00
A0
ENDCHAR
STARTCHAR uni28F6
ENCODING 10486
SWIDTH 437 0
DWIDTH 7 0
BBX 3 5 0 -2
BITMAP
A0
00
A0
00
A0
ENDCHAR
STARTCHAR uni28F7
ENCODING 10487
SWIDTH 437 0
DWIDTH 7 0
BBX 3 7 0 -2
BITMAP
80
00
A0
00
A0
00
A0
ENDCHAR
STARTCHAR uni28F8
ENCODING 10488
SWIDTH 437 0
DWIDTH 7 0
BBX 3 7 0 -2
BITMAP
20
00
20
00
20
00
A0
ENDCHAR
STARTCHAR uni28F9
ENCODING 10489
SWIDTH 437 0
DWIDTH 7 0
BBX 3 7 0 -2
BITMAP
A0
00
20
00
20
00
A0
ENDCHAR
STARTCHAR uni28FA
ENCODING 10490
SWIDTH 437 0
DWIDTH 7 0
BBX 3 7 0 -2
BITMAP
20
00
A0
00
20
00
A0
ENDCHAR
STARTCHAR uni28FB
ENCODING 10491
SWIDTH 437 0
DWIDTH 7 0
BBX 3 7 0 -2
BITMAP
A0
00
A0
00
20
00
A0
ENDCHAR
STARTCHAR uni28FC
ENCODING 10492
SWIDTH 437 0
DWIDTH 7 0
BBX 3 7 0 -2
BITMAP
20
00
20
00
A0
00
A0
ENDCHAR
STARTCHAR uni28FD
ENCODING 10493
SWIDTH 437 0
DWIDTH 7 0
BBX 3 7 0 -2
BITMAP
A0
00
20
00
A0
00
A0
ENDCHAR
STARTCHAR uni28FE
ENCODING 10494
SWIDTH 437 0
DWIDTH 7 0
BBX 3 7 0 -2
BITMAP
20
00
A0
00
A0
00
A0
ENDCHAR
STARTCHAR uni28FF
ENCODING 10495
SWIDTH 437 0
DWIDTH 7 0
BBX 3 7 0 -2
BITMAP
A0
00
A0
00
A0
00
A0
ENDCHAR
STARTCHAR uni2919
ENCODING 10521
SWIDTH 437 0
DWIDTH 7 0
BBX 5 5 -1 0
BITMAP
08
10
E0
10
08
ENDCHAR
STARTCHAR uni291A
ENCODING 10522
SWIDTH 437 0
DWIDTH 7 0
BBX 6 5 -1 0
BITMAP
80
40
3C
40
80
ENDCHAR
STARTCHAR uni291B
ENCODING 10523
SWIDTH 437 0
DWIDTH 7 0
BBX 7 5 -1 0
BITMAP
0A
14
E8
14
0A
ENDCHAR
STARTCHAR uni291C
ENCODING 10524
SWIDTH 437 0
DWIDTH 7 0
BBX 7 5 -1 0
BITMAP
A0
50
2E
50
A0
ENDCHAR
STARTCHAR uni2B60
ENCODING 11104
SWIDTH 437 0
DWIDTH 7 0
BBX 4 8 0 0
BITMAP
80
A0
F0
A0
A0
C0
80
80
ENDCHAR
STARTCHAR uni2B61
ENCODING 11105
SWIDTH 437 0
DWIDTH 7 0
BBX 4 8 0 0
BITMAP
80
80
80
C0
60
50
50
50
ENDCHAR
STARTCHAR uni2B62
ENCODING 11106
SWIDTH 437 0
DWIDTH 7 0
BBX 5 8 -1 0
BITMAP
20
40
70
50
58
90
10
08
ENDCHAR
STARTCHAR uni2B64
ENCODING 11108
SWIDTH 437 0
DWIDTH 7 0
BBX 4 7 0 0
BITMAP
60
90
90
F0
D0
D0
F0
ENDCHAR
STARTCHAR uni2B80
ENCODING 11136
SWIDTH 437 0
DWIDTH 7 0
BBX 5 9 0 0
BITMAP
80
C0
E0
F0
F8
F0
E0
C0
80
ENDCHAR
STARTCHAR uni2B81
ENCODING 11137
SWIDTH 437 0
DWIDTH 7 0
BBX 5 9 0 0
BITMAP
80
40
20
10
08
10
20
40
80
ENDCHAR
STARTCHAR uni2B82
ENCODING 11138
SWIDTH 437 0
DWIDTH 7 0
BBX 5 9 0 0
BITMAP
08
18
38
78
F8
78
38
18
08
ENDCHAR
STARTCHAR uni2B83
ENCODING 11139
SWIDTH 437 0
DWIDTH 7 0
BBX 5 9 0 0
BITMAP
08
10
20
40
80
40
20
10
08
ENDCHAR
STARTCHAR uniE0A0
ENCODING 57504
SWIDTH 437 0
DWIDTH 7 0
BBX 4 8 0 0
BITMAP
80
A0
F0
A0
A0
C0
80
80
ENDCHAR
STARTCHAR uniE0A1
ENCODING 57505
SWIDTH 437 0
DWIDTH 7 0
BBX 4 8 0 0
BITMAP
80
80
80
C0
60
50
50
50
ENDCHAR
STARTCHAR uniE0A2
ENCODING 57506
SWIDTH 437 0
DWIDTH 7 0
BBX 4 7 0 0
BITMAP
60
90
90
F0
D0
D0
F0
ENDCHAR
STARTCHAR uniE0B0
ENCODING 57520
SWIDTH 437 0
DWIDTH 7 0
BBX 5 10 0 -1
BITMAP
80
C0
E0
F0
F8
F8
F0
E0
C0
80
ENDCHAR
STARTCHAR uniE0B1
ENCODING 57521
SWIDTH 437 0
DWIDTH 7 0
BBX 5 10 0 -1
BITMAP
80
40
20
10
08
08
10
20
40
80
ENDCHAR
STARTCHAR uniE0B2
ENCODING 57522
SWIDTH 437 0
DWIDTH 7 0
BBX 5 10 0 -1
BITMAP
08
18
38
78
F8
F8
78
38
18
08
ENDCHAR
STARTCHAR uniE0B3
ENCODING 57523
SWIDTH 437 0
DWIDTH 7 0
BBX 5 10 0 -1
BITMAP
08
10
20
40
80
80
40
20
10
08
ENDCHAR
STARTCHAR uniE0C0
ENCODING 57536
SWIDTH 437 0
DWIDTH 7 0
BBX 7 5 -1 0
BITMAP
A0
50
28
54
A2
ENDCHAR
STARTCHAR uniE0C1
ENCODING 57537
SWIDTH 437 0
DWIDTH 7 0
BBX 3 5 2 0
BITMAP
80
40
20
40
80
ENDCHAR
STARTCHAR uniE0C2
ENCODING 57538
SWIDTH 437 0
DWIDTH 7 0
BBX 5 8 -1 -1
BITMAP
50
50
F8
70
70
20
20
20
ENDCHAR
STARTCHAR uniE0C3
ENCODING 57539
SWIDTH 437 0
DWIDTH 7 0
BBX 5 5 0 0
BITMAP
80
78
00
78
80
ENDCHAR
STARTCHAR uniE0C4
ENCODING 57540
SWIDTH 437 0
DWIDTH 7 0
BBX 6 5 0 0
BITMAP
A0
5C
20
5C
A0
ENDCHAR
STARTCHAR uniE0C5
ENCODING 57541
SWIDTH 437 0
DWIDTH 7 0
BBX 5 5 -1 0
BITMAP
08
F0
00
F0
08
ENDCHAR
STARTCHAR uniE0C6
ENCODING 57542
SWIDTH 437 0
DWIDTH 7 0
BBX 6 5 -1 0
BITMAP
14
E8
10
E8
14
ENDCHAR
STARTCHAR uniE0D1
ENCODING 57553
SWIDTH 437 0
DWIDTH 7 0
BBX 3 5 -1 0
BITMAP
20
40
80
40
20
ENDCHAR
STARTCHAR uniF031
ENCODING 61489
SWIDTH 437 0
DWIDTH 7 0
BBX 4 5 0 0
BITMAP
F0
F0
90
90
F0
ENDCHAR
STARTCHAR uniF033
ENCODING 61491
SWIDTH 437 0
DWIDTH 7 0
BBX 3 5 0 0
BITMAP
20
60
E0
60
20
ENDCHAR
STARTCHAR uniF034
ENCODING 61492
SWIDTH 437 0
DWIDTH 7 0
BBX 3 5 0 0
BITMAP
80
C0
E0
C0
80
ENDCHAR
STARTCHAR uniF035
ENCODING 61493
SWIDTH 437 0
DWIDTH 7 0
BBX 5 3 -1 1
BITMAP
20
70
F8
ENDCHAR
STARTCHAR uniF036
ENCODING 61494
SWIDTH 437 0
DWIDTH 7 0
BBX 5 3 -1 1
BITMAP
F8
70
20
ENDCHAR
STARTCHAR uniF037
ENCODING 61495
SWIDTH 437 0
DWIDTH 7 0
BBX 4 3 0 1
BITMAP
50
F0
50
ENDCHAR
STARTCHAR uniF038
ENCODING 61496
SWIDTH 437 0
DWIDTH 7 0
BBX 4 3 0 1
BITMAP
A0
F0
A0
ENDCHAR
STARTCHAR uniF039
ENCODING 61497
SWIDTH 437 0
DWIDTH 7 0
BBX 5 5 -1 0
BITMAP
80
A8
F8
A8
80
ENDCHAR
STARTCHAR uniF03A
ENCODING 61498
SWIDTH 437 0
DWIDTH 7 0
BBX 5 5 0 0
BITMAP
08
A8
F8
A8
08
ENDCHAR
STARTCHAR uniF03B
ENCODING 61499
SWIDTH 437 0
DWIDTH 7 0
BBX 3 4 0 0
BITMAP
A0
A0
A0
A0
ENDCHAR
STARTCHAR uniF03C
ENCODING 61500
SWIDTH 437 0
DWIDTH 7 0
BBX 4 4 0 0
BITMAP
F0
F0
F0
F0
ENDCHAR
STARTCHAR uniF03D
ENCODING 61501
SWIDTH 437 0
DWIDTH 7 0
BBX 4 4 0 0
BITMAP
60
F0
F0
60
ENDCHAR
STARTCHAR uniF057
ENCODING 61527
SWIDTH 437 0
DWIDTH 7 0
BBX 4 7 0 -1
BITMAP
80
C0
F0
F0
F0
C0
80
ENDCHAR
STARTCHAR uniF058
ENCODING 61528
SWIDTH 437 0
DWIDTH 7 0
BBX 4 7 0 -1
BITMAP
10
30
F0
F0
F0
30
10
ENDCHAR
STARTCHAR uniF059
ENCODING 61529
SWIDTH 437 0
DWIDTH 7 0
BBX 5 5 0 0
BITMAP
50
F8
F8
70
20
ENDCHAR
STARTCHAR uniF061
ENCODING 61537
SWIDTH 437 0
DWIDTH 7 0
BBX 6 4 0 0
BITMAP
0C
D8
70
20
ENDCHAR
STARTCHAR uniF073
ENCODING 61555
SWIDTH 437 0
DWIDTH 7 0
BBX 6 9 -1 -2
BITMAP
30
78
CC
CC
18
30
30
00
30
ENDCHAR
STARTCHAR uniF078
ENCODING 61560
SWIDTH 437 0
DWIDTH 7 0
BBX 5 5 0 0
BITMAP
70
C8
A8
98
70
ENDCHAR
STARTCHAR uniF079
ENCODING 61561
SWIDTH 437 0
DWIDTH 7 0
BBX 5 5 0 0
BITMAP
70
88
F8
88
70
ENDCHAR
STARTCHAR uniF07E
ENCODING 61566
SWIDTH 437 0
DWIDTH 7 0
BBX 4 6 0 0
BITMAP
10
20
70
E0
40
80
ENDCHAR
STARTCHAR uniF0CF
ENCODING 61647
SWIDTH 437 0
DWIDTH 7 0
BBX 4 7 0 0
BITMAP
60
90
90
F0
D0
D0
F0
ENDCHAR
STARTCHAR uniF0D0
ENCODING 61648
SWIDTH 437 0
DWIDTH 7 0
BBX 4 8 0 0
BITMAP
60
90
10
10
F0
D0
D0
F0
ENDCHAR
STARTCHAR uniF0D1
ENCODING 61649
SWIDTH 437 0
DWIDTH 7 0
BBX 3 7 0 -1
BITMAP
60
60
40
40
40
A0
40
ENDCHAR
STARTCHAR uniF0D5
ENCODING 61653
SWIDTH 437 0
DWIDTH 7 0
BBX 7 8 -1 -1
BITMAP
10
A4
78
4C
CA
78
94
20
ENDCHAR
STARTCHAR uniF0D6
ENCODING 61654
SWIDTH 437 0
DWIDTH 7 0
BBX 7 7 -1 0
BITMAP
10
A4
78
4C
DE
7E
FE
ENDCHAR
STARTCHAR uniF0D7
ENCODING 61655
SWIDTH 437 0
DWIDTH 7 0
BBX 7 4 -1 2
BITMAP
60
9C
BE
7E
ENDCHAR
STARTCHAR uniF0D8
ENCODING 61656
SWIDTH 437 0
DWIDTH 7 0
BBX 7 7 -1 -1
BITMAP
60
9C
BE
7E
00
14
28
ENDCHAR
STARTCHAR uniF0D9
ENCODING 61657
SWIDTH 437 0
DWIDTH 7 0
BBX 6 3 0 3
BITMAP
10
78
FC
ENDCHAR
STARTCHAR uniF0DA
ENCODING 61658
SWIDTH 437 0
DWIDTH 7 0
BBX 7 7 -1 -1
BITMAP
08
3C
7E
00
54
00
A8
ENDCHAR
STARTCHAR uniF0DB
ENCODING 61659
SWIDTH 437 0
DWIDTH 7 0
BBX 7 6 -1 0
BITMAP
08
3C
7E
00
54
A8
ENDCHAR
STARTCHAR uniF0DC
ENCODING 61660
SWIDTH 437 0
DWIDTH 7 0
BBX 6 7 0 -1
BITMAP
10
78
FC
10
30
20
40
ENDCHAR
STARTCHAR uniF0DE
ENCODING 61662
SWIDTH 437 0
DWIDTH 7 0
BBX 6 8 0 0
BITMAP
50
A0
00
14
28
00
50
A0
ENDCHAR
STARTCHAR uniF0DF
ENCODING 61663
SWIDTH 437 0
DWIDTH 7 0
BBX 5 5 0 0
BITMAP
A8
50
A8
50
A8
ENDCHAR
STARTCHAR uniF0E0
ENCODING 61664
SWIDTH 437 0
DWIDTH 7 0
BBX 5 5 0 0
BITMAP
70
B8
98
98
70
ENDCHAR
STARTCHAR uniF0ED
ENCODING 61677
SWIDTH 437 0
DWIDTH 7 0
BBX 7 3 -1 0
BITMAP
10
92
44
ENDCHAR
STARTCHAR uniF0EE
ENCODING 61678
SWIDTH 437 0
DWIDTH 7 0
BBX 7 3 -1 4
BITMAP
44
92
10
ENDCHAR
STARTCHAR uniF0EF
ENCODING 61679
SWIDTH 437 0
DWIDTH 7 0
BBX 3 7 1 -1
BITMAP
40
20
00
C0
00
20
40
ENDCHAR
STARTCHAR uniF0F0
ENCODING 61680
SWIDTH 437 0
DWIDTH 7 0
BBX 3 7 0 -1
BITMAP
40
80
00
60
00
80
40
ENDCHAR
ENDFONT
